<svg xmlns="http://www.w3.org/2000/svg" xmlns:xlink="http://www.w3.org/1999/xlink" width="547.895" height="608.079" viewBox="0 0 547.895 608.079">
  <defs>
    <linearGradient id="linear-gradient" x1="-11.741" y1="5.084" x2="-11.741" y2="4.933" gradientUnits="objectBoundingBox">
      <stop offset="0" stop-color="gray" stop-opacity="0.251"/>
      <stop offset="0.535" stop-color="gray" stop-opacity="0.122"/>
      <stop offset="1" stop-color="gray" stop-opacity="0.102"/>
    </linearGradient>
    <linearGradient id="linear-gradient-2" x1="0.5" y1="1" x2="0.5" gradientUnits="objectBoundingBox">
      <stop offset="0" stop-color="gray" stop-opacity="0.251"/>
      <stop offset="0.54" stop-color="gray" stop-opacity="0.122"/>
      <stop offset="1" stop-color="gray" stop-opacity="0.102"/>
    </linearGradient>
    <linearGradient id="linear-gradient-3" x1="0.5" y1="1" x2="0.5" y2="0" xlink:href="#linear-gradient-2"/>
  </defs>
  <g id="Group_387" data-name="Group 387" transform="translate(-846 -138.921)">
    <g id="undraw_Graduation_ktn0" transform="translate(864.557 138.921)">
      <ellipse id="Ellipse_2" data-name="Ellipse 2" cx="17.553" cy="2.633" rx="17.553" ry="2.633" transform="translate(4.726 158.146) rotate(-63.611)" fill="#e0e0e0"/>
      <ellipse id="Ellipse_3" data-name="Ellipse 3" cx="17.553" cy="1.789" rx="17.553" ry="1.789" transform="translate(224.816 267.45) rotate(-63.611)" fill="#e0e0e0"/>
      <rect id="Rectangle_132" data-name="Rectangle 132" width="10.532" height="35.106" transform="translate(110.241 202.711) rotate(39.547)" fill="#f55f44"/>
      <rect id="Rectangle_133" data-name="Rectangle 133" width="11.85" height="35.106" transform="translate(111.224 241.359) rotate(-166.769)" opacity="0.05"/>
      <rect id="Rectangle_134" data-name="Rectangle 134" width="10.532" height="35.106" transform="translate(111.224 241.359) rotate(-166.769)" fill="#f55f44"/>
      <rect id="Rectangle_135" data-name="Rectangle 135" width="36.862" height="244.868" transform="translate(6.694 160.102) rotate(-63.611)" fill="url(#linear-gradient)"/>
      <path id="Path_60" data-name="Path 60" d="M435.777,558.915c-4.293-2.059-222.5-110.4-219.351-108.835,12.111-18.485,15.6-31.448,15.6-31.448L451.381,527.467S443.678,540.986,435.777,558.915Z" transform="translate(-209.343 -290.763)" fill="#f5f5f5"/>
      <rect id="Rectangle_136" data-name="Rectangle 136" width="20.186" height="35.106" transform="translate(118.604 175.461) rotate(26.389)" opacity="0.05"/>
      <rect id="Rectangle_137" data-name="Rectangle 137" width="18.431" height="35.106" transform="translate(119.39 175.851) rotate(26.389)" fill="#f55f44"/>
      <rect id="Rectangle_138" data-name="Rectangle 138" width="12.287" height="35.106" transform="translate(121.748 177.021) rotate(26.389)" opacity="0.05"/>
      <rect id="Rectangle_139" data-name="Rectangle 139" width="10.532" height="35.106" transform="translate(122.535 177.411) rotate(26.389)" fill="#f55f44"/>
      <circle id="Ellipse_4" data-name="Ellipse 4" cx="1.463" cy="1.463" r="1.463" transform="translate(129.235 280.593)" fill="#dbdbdb"/>
      <g id="Group_310" data-name="Group 310" transform="translate(11.203 241.081)" opacity="0.5">
        <rect id="Rectangle_140" data-name="Rectangle 140" width="1.501" height="8.503" transform="translate(3.501)" fill="#47e6b1"/>
        <rect id="Rectangle_141" data-name="Rectangle 141" width="1.501" height="8.503" transform="translate(8.503 3.501) rotate(90)" fill="#47e6b1"/>
      </g>
      <g id="Group_311" data-name="Group 311" transform="translate(389.329 135.045)" opacity="0.5">
        <rect id="Rectangle_142" data-name="Rectangle 142" width="1.501" height="8.503" transform="translate(3.501)" fill="#47e6b1"/>
        <rect id="Rectangle_143" data-name="Rectangle 143" width="1.501" height="8.503" transform="translate(8.503 3.501) rotate(90)" fill="#47e6b1"/>
      </g>
      <g id="Group_312" data-name="Group 312" transform="translate(20.206 29.51)" opacity="0.5">
        <rect id="Rectangle_144" data-name="Rectangle 144" width="1.501" height="8.503" transform="translate(3.501)" fill="#47e6b1"/>
        <rect id="Rectangle_145" data-name="Rectangle 145" width="1.501" height="8.503" transform="translate(8.503 3.501) rotate(90)" fill="#47e6b1"/>
      </g>
      <g id="Group_313" data-name="Group 313" transform="translate(344.314 16.506)" opacity="0.5">
        <rect id="Rectangle_146" data-name="Rectangle 146" width="1.501" height="8.503" transform="translate(3.501)" fill="#47e6b1"/>
        <rect id="Rectangle_147" data-name="Rectangle 147" width="1.501" height="8.503" transform="translate(8.503 3.501) rotate(90)" fill="#47e6b1"/>
      </g>
      <path id="Path_61" data-name="Path 61" d="M208.452,413.037a1.838,1.838,0,0,1-1.024-2.221.883.883,0,0,0,.04-.2h0a.922.922,0,0,0-1.656-.611h0a.884.884,0,0,0-.1.181,1.838,1.838,0,0,1-2.221,1.024.882.882,0,0,0-.2-.04h0a.922.922,0,0,0-.611,1.656h0a.884.884,0,0,0,.181.1,1.838,1.838,0,0,1,1.024,2.221.883.883,0,0,0-.04.2h0a.922.922,0,0,0,1.656.611h0a.884.884,0,0,0,.1-.181,1.838,1.838,0,0,1,2.221-1.024.885.885,0,0,0,.2.04h0a.922.922,0,0,0,.611-1.656h0a.884.884,0,0,0-.181-.1Z" transform="translate(-202.303 -286.266)" fill="#4d8af0" opacity="0.5"/>
      <path id="Path_62" data-name="Path 62" d="M380.452,216.037a1.838,1.838,0,0,1-1.024-2.221.884.884,0,0,0,.04-.2h0a.922.922,0,0,0-1.656-.611h0a.884.884,0,0,0-.1.181,1.838,1.838,0,0,1-2.221,1.024.883.883,0,0,0-.2-.04h0a.922.922,0,0,0-.611,1.656h0a.882.882,0,0,0,.181.1,1.838,1.838,0,0,1,1.024,2.221.884.884,0,0,0-.04.2h0a.922.922,0,0,0,1.656.611h0a.884.884,0,0,0,.1-.181,1.838,1.838,0,0,1,2.221-1.024.884.884,0,0,0,.2.04h0a.922.922,0,0,0,.611-1.656h0a.884.884,0,0,0-.181-.1Z" transform="translate(-288.274 -187.799)" fill="#4d8af0" opacity="0.5"/>
      <path id="Path_63" data-name="Path 63" d="M590.452,727.037a1.838,1.838,0,0,1-1.024-2.221.883.883,0,0,0,.04-.2h0a.922.922,0,0,0-1.656-.611h0a.888.888,0,0,0-.1.181,1.838,1.838,0,0,1-2.221,1.024.882.882,0,0,0-.2-.04h0a.922.922,0,0,0-.611,1.656h0a.879.879,0,0,0,.181.1,1.838,1.838,0,0,1,1.024,2.221.892.892,0,0,0-.04.2h0a.922.922,0,0,0,1.656.611h0a.88.88,0,0,0,.1-.181,1.838,1.838,0,0,1,2.221-1.024.889.889,0,0,0,.2.04h0a.922.922,0,0,0,.611-1.656h0A.885.885,0,0,0,590.452,727.037Z" transform="translate(-393.239 -443.214)" fill="#4d8af0" opacity="0.5"/>
      <circle id="Ellipse_5" data-name="Ellipse 5" cx="3.001" cy="3.001" r="3.001" transform="translate(376.825 219.073)" fill="#f55f44" opacity="0.5"/>
      <circle id="Ellipse_6" data-name="Ellipse 6" cx="3.001" cy="3.001" r="3.001" transform="translate(310.803 238.079)" fill="#4d8af0" opacity="0.5"/>
      <circle id="Ellipse_7" data-name="Ellipse 7" cx="3.001" cy="3.001" r="3.001" transform="translate(48.716 267.589)" fill="#47e6b1" opacity="0.5"/>
      <circle id="Ellipse_8" data-name="Ellipse 8" cx="3.001" cy="3.001" r="3.001" transform="translate(202.767)" fill="#f55f44" opacity="0.5"/>
      <path id="Path_64" data-name="Path 64" d="M395.2,479.995,383.2,498s4,18.506,92.531,18.006S571.26,498,571.26,498l-16.505-24.008-50.517-34.512Z" transform="translate(-292.718 -301.185)" fill="#f2ca35"/>
      <path id="Path_65" data-name="Path 65" d="M395.2,479.995,383.2,498s4,18.506,92.531,18.006S571.26,498,571.26,498l-16.505-24.008-50.517-34.512Z" transform="translate(-292.718 -301.185)" opacity="0.15"/>
      <path id="Path_66" data-name="Path 66" d="M366.011,144.027,208.458,213.55,16.394,144.027,192.453,64l86.424,39.848,3.1,1.43Z" transform="translate(-8.192 -31.989)" fill="#f2ca35"/>
      <path id="Path_67" data-name="Path 67" d="M366.011,144.027,208.458,213.55,16.394,144.027,192.453,64l86.424,39.848,3.1,1.43Z" transform="translate(-8.192 -31.989)" opacity="0.15"/>
      <path id="Path_68" data-name="Path 68" d="M547.541,200.514l-3,.18-3.356-57.024,3.1,1.43Z" transform="translate(-270.499 -71.811)" fill="#f5f5f5"/>
      <path id="Path_69" data-name="Path 69" d="M397.2,376.3l-14,85.028s100.534-32.511,188.063,0l-13-90.03S440.716,356.794,397.2,376.3Z" transform="translate(-292.718 -264.513)" fill="#f2ca35"/>
      <ellipse id="Ellipse_9" data-name="Ellipse 9" cx="14.505" cy="10.003" rx="14.505" ry="10.003" transform="translate(262.287 126.042)" fill="#f5f5f5"/>
    </g>
    <g id="undraw_true_friends_c94g" transform="translate(845.885 541.884)">
      <g id="Group_314" data-name="Group 314" transform="translate(50.593 26.316)" opacity="0.2">
        <path id="Path_70" data-name="Path 70" d="M432.758,728.475a12.049,12.049,0,0,0,.611,1.845q5.9-2.317,11.928-4.442c-.034-.167-.068-.342-.11-.515a10.445,10.445,0,0,0-2.507-4.764,5.911,5.911,0,0,0-5.692-2.017,6.08,6.08,0,0,0-4.145,4.47A10.579,10.579,0,0,0,432.758,728.475Z" transform="translate(-377.385 -566.249)" fill="#3f3d56"/>
        <ellipse id="Ellipse_10" data-name="Ellipse 10" cx="6.405" cy="8.57" rx="6.405" ry="8.57" transform="translate(51.035 143.52) rotate(-12.59)" fill="#3f3d56"/>
        <ellipse id="Ellipse_11" data-name="Ellipse 11" cx="6.405" cy="8.57" rx="6.405" ry="8.57" transform="translate(48.613 133.33) rotate(-12.59)" fill="#3f3d56"/>
        <ellipse id="Ellipse_12" data-name="Ellipse 12" cx="6.405" cy="8.57" rx="6.405" ry="8.57" transform="translate(46.185 123.147) rotate(-12.59)" fill="#3f3d56"/>
        <ellipse id="Ellipse_13" data-name="Ellipse 13" cx="6.405" cy="8.57" rx="6.405" ry="8.57" transform="translate(43.757 112.961) rotate(-12.59)" fill="#3f3d56"/>
        <path id="Path_71" data-name="Path 71" d="M296.366,224.911a31.564,31.564,0,0,0,1.488-4.068l-16.975,1.335,17.694-4.281a32.057,32.057,0,0,0-.314-13.433,31.686,31.686,0,0,0-4.875-10.872l-20.709,18.517L290.6,190.191a30.127,30.127,0,0,0-29.392-8.77c-16.44,4.111-26.515,21.1-22.5,37.939a31.33,31.33,0,0,0,10.861,17.258,32.005,32.005,0,0,0-2.074,6.405L271.379,249l-24.45-2.119a32.1,32.1,0,0,0,.758,10.185,31.359,31.359,0,0,0,10.864,17.258,31.927,31.927,0,0,0-1.879,20.446c4.012,16.842,20.591,27.16,37.031,23.052s26.515-21.094,22.5-37.936a31.358,31.358,0,0,0-10.864-17.258,31.927,31.927,0,0,0,1.879-20.446A31.338,31.338,0,0,0,296.366,224.911Z" transform="translate(-237.827 -180.514)" fill="#f2ca35"/>
        <path id="Path_72" data-name="Path 72" d="M272.68,447.334a31.359,31.359,0,0,0,10.864,17.258,31.927,31.927,0,0,0-1.879,20.446c4.012,16.842,20.591,27.16,37.031,23.052S345.211,487,341.2,470.154A31.358,31.358,0,0,0,330.335,452.9C333.091,446.712,271.865,443.92,272.68,447.334Z" transform="translate(-262.814 -370.79)" opacity="0.1"/>
      </g>
      <g id="Group_315" data-name="Group 315" transform="translate(162.663 0.001)" opacity="0.2">
        <path id="Path_73" data-name="Path 73" d="M702.917,720.865a13.216,13.216,0,0,0-.122,2.224q7.4.119,14.853.5c.034-.2.068-.393.1-.594a11.788,11.788,0,0,0-.693-6.148,6.508,6.508,0,0,0-11.73-1.695A11.809,11.809,0,0,0,702.917,720.865Z" transform="translate(-683.314 -535.433)" fill="#3f3d56"/>
        <ellipse id="Ellipse_14" data-name="Ellipse 14" cx="9.806" cy="7.492" rx="9.806" ry="7.492" transform="translate(19.921 183.279) rotate(-81.82)" fill="#3f3d56"/>
        <ellipse id="Ellipse_15" data-name="Ellipse 15" cx="9.806" cy="7.492" rx="9.806" ry="7.492" transform="translate(21.626 171.415) rotate(-81.82)" fill="#3f3d56"/>
        <ellipse id="Ellipse_16" data-name="Ellipse 16" cx="9.806" cy="7.492" rx="9.806" ry="7.492" transform="translate(23.33 159.554) rotate(-81.82)" fill="#3f3d56"/>
        <ellipse id="Ellipse_17" data-name="Ellipse 17" cx="9.806" cy="7.492" rx="9.806" ry="7.492" transform="translate(25.037 147.69) rotate(-81.82)" fill="#3f3d56"/>
        <path id="Path_74" data-name="Path 74" d="M707.211,149.352a35.451,35.451,0,0,0,3.344-3.678l-19.02-5.975,21.046,3.183a35.953,35.953,0,0,0,4.722-28.043l-30.374,10.592,28.823-15.419a35.882,35.882,0,1,0-64.369,31.319,35.953,35.953,0,0,0-4.971,5.893L669.812,164l-25.663-12.924a35.9,35.9,0,0,0,.922,34.176,35.879,35.879,0,1,0,55.828,8.023,35.885,35.885,0,0,0,6.312-43.92Z" transform="translate(-633.95 -87.501)" fill="#f2ca35"/>
        <path id="Path_75" data-name="Path 75" d="M640.627,350.59a35.735,35.735,0,0,0,4.445,23.052,35.879,35.879,0,1,0,55.828,8.023C706.529,376.3,641.2,346.6,640.627,350.59Z" transform="translate(-633.95 -275.895)" opacity="0.1"/>
      </g>
      <ellipse id="Ellipse_18" data-name="Ellipse 18" cx="153" cy="9" rx="153" ry="9" transform="translate(0.115 187.116)" fill="#f2ca35" opacity="0.1"/>
      <ellipse id="Ellipse_19" data-name="Ellipse 19" cx="7.158" cy="1.378" rx="7.158" ry="1.378" transform="translate(245.967 190.055)" fill="#f2ca35"/>
      <ellipse id="Ellipse_20" data-name="Ellipse 20" cx="0.835" cy="1.092" rx="0.835" ry="1.092" transform="translate(252.172 189.758)" fill="#3f3d56"/>
      <ellipse id="Ellipse_21" data-name="Ellipse 21" cx="0.835" cy="1.092" rx="0.835" ry="1.092" transform="translate(252.172 188.423)" fill="#3f3d56"/>
      <ellipse id="Ellipse_22" data-name="Ellipse 22" cx="0.835" cy="1.092" rx="0.835" ry="1.092" transform="translate(252.172 187.09)" fill="#3f3d56"/>
      <ellipse id="Ellipse_23" data-name="Ellipse 23" cx="0.835" cy="1.092" rx="0.835" ry="1.092" transform="translate(252.172 185.758)" fill="#3f3d56"/>
      <ellipse id="Ellipse_24" data-name="Ellipse 24" cx="0.835" cy="1.092" rx="0.835" ry="1.092" transform="translate(252.172 184.422)" fill="#3f3d56"/>
      <ellipse id="Ellipse_25" data-name="Ellipse 25" cx="0.835" cy="1.092" rx="0.835" ry="1.092" transform="translate(252.172 183.09)" fill="#3f3d56"/>
      <ellipse id="Ellipse_26" data-name="Ellipse 26" cx="0.835" cy="1.092" rx="0.835" ry="1.092" transform="translate(252.172 181.757)" fill="#3f3d56"/>
      <path id="Path_76" data-name="Path 76" d="M946.2,685.13a3.844,3.844,0,0,0,.311-.458l-2.19-.359,2.368.017a4.006,4.006,0,0,0,.076-3.163l-3.177,1.649,2.931-2.156a3.995,3.995,0,1,0-6.595,4.47,4.08,4.08,0,0,0-.456.727l2.829,1.477-3.03-1.018a49.111,49.111,0,0,1,1.085,9.152,8.082,8.082,0,0,0,5.846-10.334Z" transform="translate(-690.076 -511.405)" fill="#f2ca35"/>
      <path id="Path_77" data-name="Path 77" d="M939.085,710.121a15.976,15.976,0,0,1,1.278,7.867,3.992,3.992,0,0,0,5.846-5.4C946.75,711.909,939.085,709.674,939.085,710.121Z" transform="translate(-690.091 -533.929)" opacity="0.1"/>
      <ellipse id="Ellipse_27" data-name="Ellipse 27" cx="9.563" cy="1.839" rx="9.563" ry="1.839" transform="translate(79.188 200.215)" fill="#f2ca35"/>
      <ellipse id="Ellipse_28" data-name="Ellipse 28" cx="1.115" cy="1.457" rx="1.115" ry="1.457" transform="translate(87.475 199.816)" fill="#3f3d56"/>
      <ellipse id="Ellipse_29" data-name="Ellipse 29" cx="1.115" cy="1.457" rx="1.115" ry="1.457" transform="translate(87.475 198.033)" fill="#3f3d56"/>
      <ellipse id="Ellipse_30" data-name="Ellipse 30" cx="1.115" cy="1.457" rx="1.115" ry="1.457" transform="translate(87.475 196.251)" fill="#3f3d56"/>
      <ellipse id="Ellipse_31" data-name="Ellipse 31" cx="1.115" cy="1.457" rx="1.115" ry="1.457" transform="translate(87.475 194.472)" fill="#3f3d56"/>
      <ellipse id="Ellipse_32" data-name="Ellipse 32" cx="1.115" cy="1.457" rx="1.115" ry="1.457" transform="translate(87.475 192.689)" fill="#3f3d56"/>
      <ellipse id="Ellipse_33" data-name="Ellipse 33" cx="1.115" cy="1.457" rx="1.115" ry="1.457" transform="translate(87.475 190.907)" fill="#3f3d56"/>
      <ellipse id="Ellipse_34" data-name="Ellipse 34" cx="1.115" cy="1.457" rx="1.115" ry="1.457" transform="translate(87.475 189.127)" fill="#3f3d56"/>
      <path id="Path_78" data-name="Path 78" d="M362.7,696.254a5.64,5.64,0,0,0,.413-.611l-2.923-.481,3.163.025a5.33,5.33,0,0,0,.1-4.227l-4.244,2.2,3.913-2.863a5.333,5.333,0,1,0-8.81,5.969,5.456,5.456,0,0,0-.608.973l3.8,1.98-4.051-1.358a69.689,69.689,0,0,1,1.423,12.221,10.8,10.8,0,0,0,7.811-13.808Z" transform="translate(-269.937 -517.86)" fill="#f2ca35"/>
      <path id="Path_79" data-name="Path 79" d="M353.178,729.5a21.442,21.442,0,0,1,1.706,10.512A5.333,5.333,0,0,0,362.7,732.8C363.417,731.892,353.178,728.9,353.178,729.5Z" transform="translate(-269.944 -547.812)" opacity="0.1"/>
      <path id="Path_80" data-name="Path 80" d="M396.7,326.116a74.82,74.82,0,0,1-1.661-11.4c-.079-2.263.079-4.566-.212-6.824-.144-1.109-.4-2.2-.645-3.287l-1-4.36a7.281,7.281,0,0,0-.1-2.509,8.769,8.769,0,0,0-.4-1.276,19.806,19.806,0,0,0,2.294-4.244,4.233,4.233,0,0,0,.39-2.119c-.2-1.378-1.539-2.286-2.781-2.965a6.106,6.106,0,0,0-2.4-.871,3.907,3.907,0,0,0-3.169,1.415,6.884,6.884,0,0,1,.2-3.347c-.738-.331-1.482-.642-2.232-.945a20.488,20.488,0,0,1-.113-2.945c.017-1.18.037-2.371.1-3.553a10.5,10.5,0,0,0,6.9-9.8v-.359a8.51,8.51,0,0,0,.73-6.53A11.5,11.5,0,0,0,387,253.6a19.306,19.306,0,0,0-8.635-2.156,12.423,12.423,0,0,0-3,.19,14.494,14.494,0,0,0-3.061,1.132,12.908,12.908,0,0,0-4.125,2.637c-1.944,2.074-2.379,5.121-2.167,7.922a35.217,35.217,0,0,0,2.931,10.66,13.093,13.093,0,0,0,1.754,3.245,1.859,1.859,0,0,0,2.481.269,27.153,27.153,0,0,0-.062,2.716,6.855,6.855,0,0,0-4.266,1.064,1.913,1.913,0,0,0-.979,1.726,1.6,1.6,0,0,1,1.545,1.372,2.963,2.963,0,0,1-.535,1.7c-.127.232-.255.467-.385.7-1.216,1.3-2.464,2.931-2.575,4.546a5.679,5.679,0,0,0-.591.088c-1.1.2-2.2.58-3.285.863l-7.842,2.065-1.938.538-3.112.82a22.017,22.017,0,0,0-5.755,2.1,7.211,7.211,0,0,0-3.6,4.671c-.175.985-.068,2.009-.283,2.985a.51.51,0,0,1-.028.13,9.552,9.552,0,0,1-.721,1.785,24.639,24.639,0,0,0-2.773,11.817,34.439,34.439,0,0,0,1.533,7.356q1.078,3.7,2.128,7.4a38.821,38.821,0,0,0,1.751,5.177,19.946,19.946,0,0,0,5.242,7.008,9.258,9.258,0,0,0,2.094,1.415,7.614,7.614,0,0,0,3.678.6c.339-.023.673-.059,1-.113a18.309,18.309,0,0,0,6.776-2.874q1.3-.826,2.546-1.74a16.154,16.154,0,0,0,.566,2.807,5.028,5.028,0,0,1,.337,1.932,10.386,10.386,0,0,1-1.106,2.512c-.727,1.8.02,3.817.141,5.752a21.1,21.1,0,0,1-.679,5.4,56.361,56.361,0,0,0-1.044,9.031,27.328,27.328,0,0,1-.226,3.435c-.263,1.607-.88,3.157-.987,4.781-.164,2.529.928,5,.829,7.537-.116,2.973-1.862,5.862-1.253,8.77.076.365.283.787.617.88l-.164.15c-.5.464-.987,1.321-.419,1.7a1.112,1.112,0,0,0,.427.147c.88.184,1.765.351,2.651.506a8.2,8.2,0,0,0,.306,2.422c.161.116.325.221.489.32a.653.653,0,0,0,.178.849,1.112,1.112,0,0,0,.427.147A92.366,92.366,0,0,0,386,404.317a8.026,8.026,0,0,0,3.853-.826,2.78,2.78,0,0,0,1.361-3.316c-.478-1.052-1.729-1.508-2.852-1.859l-1.318-.407a2.264,2.264,0,0,0,.119-1.98c-.478-1.052-1.729-1.508-2.852-1.859l-3.036-.942a2.98,2.98,0,0,1-1.1-.518,6,6,0,0,1-.6-.7,3.4,3.4,0,0,0-1.655-1.038,12.874,12.874,0,0,1,.042-1.93L378.8,378.7a22.183,22.183,0,0,0-.164-6.951,6.228,6.228,0,0,1-.354-2.784c.331-1.505,1.915-2.343,3-3.46,1.63-1.7,2.136-4.111,2.509-6.408a129.367,129.367,0,0,0,1.449-28.691,45.831,45.831,0,0,1,10.417-1.675,1.075,1.075,0,0,0,1.081-.869A3.492,3.492,0,0,0,396.7,326.116Zm-16.933.5c.02-.1.042-.2.059-.3l.235.3Z" transform="translate(-257.603 -205.047)" fill="url(#linear-gradient-2)"/>
      <path id="Path_81" data-name="Path 81" d="M466.62,323.074c-.074.985-.422,1.93-.549,2.911-.144,1.081-.017,2.181-.088,3.27a4.158,4.158,0,0,1-1.214,2.945,57.189,57.189,0,0,1,14.123,3.056c-1.378-1.7-1.415-4.068-1.381-6.247.045-3.222.1-6.507,1.154-9.548a23.239,23.239,0,0,0-9.546-.125c-.685.136-2.758.051-3.067.69C465.831,320.5,466.671,322.361,466.62,323.074Z" transform="translate(-349.971 -253.434)" fill="#a1616a"/>
      <path id="Path_82" data-name="Path 82" d="M466.62,323.074c-.074.985-.422,1.93-.549,2.911-.144,1.081-.017,2.181-.088,3.27a4.158,4.158,0,0,1-1.214,2.945,57.189,57.189,0,0,1,14.123,3.056c-1.378-1.7-1.415-4.068-1.381-6.247.045-3.222.1-6.507,1.154-9.548a23.239,23.239,0,0,0-9.546-.125c-.685.136-2.758.051-3.067.69C465.831,320.5,466.671,322.361,466.62,323.074Z" transform="translate(-349.971 -253.434)" opacity="0.1"/>
      <path id="Path_83" data-name="Path 83" d="M440.678,744.787a5.879,5.879,0,0,0,.566.71,2.845,2.845,0,0,0,1.078.518l2.965.942c1.1.351,2.323.8,2.79,1.856a2.8,2.8,0,0,1-1.333,3.31,7.728,7.728,0,0,1-3.766.826,88.593,88.593,0,0,1-21.669-1.836,1.132,1.132,0,0,1-.416-.147c-.566-.382-.082-1.236.407-1.7,1.91-1.811,3.986-3.709,6.586-4.128,1.366-.223,2.739-.133,4.1-.458.976-.235,1.9-.639,2.872-.88C436.669,743.359,439.382,743.2,440.678,744.787Z" transform="translate(-318.325 -557.906)" fill="#46455b"/>
      <path id="Path_84" data-name="Path 84" d="M440.678,744.787a5.879,5.879,0,0,0,.566.71,2.845,2.845,0,0,0,1.078.518l2.965.942c1.1.351,2.323.8,2.79,1.856a2.8,2.8,0,0,1-1.333,3.31,7.728,7.728,0,0,1-3.766.826,88.593,88.593,0,0,1-21.669-1.836,1.132,1.132,0,0,1-.416-.147c-.566-.382-.082-1.236.407-1.7,1.91-1.811,3.986-3.709,6.586-4.128,1.366-.223,2.739-.133,4.1-.458.976-.235,1.9-.639,2.872-.88C436.669,743.359,439.382,743.2,440.678,744.787Z" transform="translate(-318.325 -557.906)" opacity="0.1"/>
      <path id="Path_85" data-name="Path 85" d="M426.067,516.144a17.982,17.982,0,0,0-.255,12.027c-.987-.108-1.415,1.228-1.389,2.224a16.472,16.472,0,0,0,.625,4.1,5.136,5.136,0,0,1,.331,1.929,10.459,10.459,0,0,1-1.084,2.51c-.707,1.8.02,3.811.141,5.743a21.41,21.41,0,0,1-.668,5.392,57.5,57.5,0,0,0-1.018,9.017,27.2,27.2,0,0,1-.224,3.432c-.255,1.607-.849,3.155-.962,4.776-.161,2.524.905,5,.809,7.528-.113,2.968-1.822,5.854-1.225,8.77.085.41.314.894.736.9,4.266.054,8.253-1.132,12.474-.512.43-9.766.849-19.578,2.773-29.166,1.7-8.536,4.575-16.975,4.306-25.677-.156-4.977-1.338-9.857-2.057-14.785A19.45,19.45,0,0,0,426.067,516.144Z" transform="translate(-318.602 -393.253)" fill="#bbbdc8"/>
      <path id="Path_86" data-name="Path 86" d="M426.067,516.144a17.982,17.982,0,0,0-.255,12.027c-.987-.108-1.415,1.228-1.389,2.224a16.472,16.472,0,0,0,.625,4.1,5.136,5.136,0,0,1,.331,1.929,10.459,10.459,0,0,1-1.084,2.51c-.707,1.8.02,3.811.141,5.743a21.41,21.41,0,0,1-.668,5.392,57.5,57.5,0,0,0-1.018,9.017,27.2,27.2,0,0,1-.224,3.432c-.255,1.607-.849,3.155-.962,4.776-.161,2.524.905,5,.809,7.528-.113,2.968-1.822,5.854-1.225,8.77.085.41.314.894.736.9,4.266.054,8.253-1.132,12.474-.512.43-9.766.849-19.578,2.773-29.166,1.7-8.536,4.575-16.975,4.306-25.677-.156-4.977-1.338-9.857-2.057-14.785A19.45,19.45,0,0,0,426.067,516.144Z" transform="translate(-318.602 -393.253)" opacity="0.1"/>
      <path id="Path_87" data-name="Path 87" d="M454.678,759.787a5.869,5.869,0,0,0,.566.71,2.848,2.848,0,0,0,1.078.518l2.965.942c1.1.351,2.323.8,2.789,1.856a2.8,2.8,0,0,1-1.333,3.31,7.727,7.727,0,0,1-3.766.826,88.593,88.593,0,0,1-21.669-1.836,1.129,1.129,0,0,1-.416-.147c-.566-.382-.082-1.236.407-1.7,1.91-1.811,3.986-3.709,6.586-4.128,1.367-.223,2.739-.133,4.1-.458.976-.235,1.9-.639,2.872-.88C450.669,758.359,453.382,758.2,454.678,759.787Z" transform="translate(-328.364 -568.663)" fill="#46455b"/>
      <path id="Path_88" data-name="Path 88" d="M435.609,517.941a7.261,7.261,0,0,0-1.267,5.053,21.128,21.128,0,0,0,1.33,5.149c-.778.716-.617,1.949-.515,3,.371,3.91-.987,7.811-.789,11.732.082,1.65.441,3.276.526,4.926a31.651,31.651,0,0,1-.351,5.4,321.848,321.848,0,0,0-2.263,34.541,11.164,11.164,0,0,0,.283,3.163,8.59,8.59,0,0,0,7.13,1.151,26.958,26.958,0,0,0,6.994-3.072,21.594,21.594,0,0,0,3.463-2.235,1.848,1.848,0,0,0,.7-.956c.238-1.132-1.335-1.644-2.238-2.377-1.313-1.067-1.293-3.041-1.157-4.728l.82-10.23a22.651,22.651,0,0,0-.158-6.943,6.453,6.453,0,0,1-.348-2.781c.323-1.5,1.873-2.337,2.928-3.454,1.6-1.7,2.088-4.105,2.456-6.4a132.217,132.217,0,0,0,1.1-32.88c-2.079.721-4.544.328-6.736.5s-4.371.9-6.592.962C439.067,517.5,436.747,516.481,435.609,517.941Z" transform="translate(-326.672 -394.77)" fill="#bbbdc8"/>
      <circle id="Ellipse_35" data-name="Ellipse 35" cx="10" cy="10" r="10" transform="translate(114.115 52.116)" fill="#a1616a"/>
      <path id="Path_89" data-name="Path 89" d="M453.609,357.9a56.337,56.337,0,0,0-10.442-3.6c-2.529-.6-5.418-.965-7.531.549a1.9,1.9,0,0,0-.956,1.726,1.573,1.573,0,0,1,1.508,1.369,3,3,0,0,1-.521,1.7l-2.442,4.527a12.94,12.94,0,0,0-1.907,7.039l-.283,4.108a49.18,49.18,0,0,0-.119,7.772,25.378,25.378,0,0,1,.306,5.845c-.224,1.559-.883,3.022-1.253,4.555-.7,2.886-.379,6.049-1.729,8.7a2.62,2.62,0,0,1,1.751-.158c4.1.755,7.319,3.989,11.3,5.225,1-1.465,2.365-2.546,3.488-3.91a7.56,7.56,0,0,0,1.6-3.548,13.345,13.345,0,0,1,2.077,3.327,2.236,2.236,0,0,0,.453.829c.535.521,1.415.32,2.13.1a43.908,43.908,0,0,1,10.8-1.83,1.058,1.058,0,0,0,1.058-.869,3.5,3.5,0,0,0-.028-1.743,76.405,76.405,0,0,1-1.621-11.382c-.079-2.263.076-4.558-.209-6.815-.141-1.106-.388-2.2-.631-3.282l-2.02-8.977c-.113-.5-.651-.829-.88-1.29-.928-1.879-2.7-3.237-3.619-5.121A6.714,6.714,0,0,1,453.609,357.9Z" transform="translate(-323.776 -278.444)" fill="#46455b"/>
      <path id="Path_90" data-name="Path 90" d="M450.517,272.062a.693.693,0,0,1,.1-.419.944.944,0,0,1,.407-.252,2.147,2.147,0,0,0,1.2-2.294l.99-.207.031-3.449c1.471-.815,3.477-.2,4.86-1.157A6.58,6.58,0,0,0,459.755,262a2.989,2.989,0,0,1,2.128-1.714,6.06,6.06,0,0,0,.325,5.129,5.842,5.842,0,0,0,2.385-2.229l.492,2.829a.7.7,0,0,0,.209.461c.257.19.605-.048.832-.283l1.282-1.259a17.644,17.644,0,0,1,1.1,4.213A8.316,8.316,0,0,0,470.457,261a11.445,11.445,0,0,0-5.48-6.592,18.527,18.527,0,0,0-8.439-2.153,12,12,0,0,0-2.937.19,13.941,13.941,0,0,0-2.993,1.132,12.538,12.538,0,0,0-4.032,2.631c-1.9,2.071-2.328,5.115-2.119,7.922a35.885,35.885,0,0,0,2.866,10.646,13.132,13.132,0,0,0,1.714,3.242c1.146,1.451,3.961.246,3.6-2.623C452.39,273.349,450.517,274.139,450.517,272.062Z" transform="translate(-335.371 -205.63)" fill="#3f3d56"/>
      <path id="Path_91" data-name="Path 91" d="M380.227,429.071a44.39,44.39,0,0,1-15.688,17.711,17.709,17.709,0,0,1-6.623,2.872c-.325.054-.651.091-.982.113a7.327,7.327,0,0,1-3.585-.608,9.052,9.052,0,0,1-2.048-1.415,19.891,19.891,0,0,1-5.124-7,39.4,39.4,0,0,1-1.712-5.172q-1.041-3.695-2.077-7.393a34.691,34.691,0,0,1-1.5-7.356,25.043,25.043,0,0,1,2.71-11.8,9.732,9.732,0,0,0,.7-1.782.767.767,0,0,1,.028-.13c.2-.976.1-2,.283-2.982a7.18,7.18,0,0,1,3.519-4.665,21.111,21.111,0,0,1,5.627-2.1l3.036-.818,1.884-.506,7.664-2.062c1.061-.283,2.133-.659,3.211-.849,1.2-.226,1.194-.108,1.287,1.069a48.692,48.692,0,0,0,.566,6.343c.427,2.017,1.18,3.961,1.746,5.941,1.429,5,1.666,10.261,2.792,15.34a5.2,5.2,0,0,0,1.545,3.112c1.067.849,2.863,1.058,3.146,2.388A3.051,3.051,0,0,1,380.227,429.071Z" transform="translate(-261.119 -306.596)" fill="#f2ca35"/>
      <path id="Path_92" data-name="Path 92" d="M357.916,485.318c-.325.054-.651.091-.982.113a7.328,7.328,0,0,1-3.585-.6,9.051,9.051,0,0,1-2.048-1.415,19.891,19.891,0,0,1-5.124-7,39.4,39.4,0,0,1-1.712-5.172q-1.041-3.695-2.077-7.393a34.691,34.691,0,0,1-1.5-7.356,25.043,25.043,0,0,1,2.71-11.8,9.732,9.732,0,0,0,.7-1.782.768.768,0,0,1,.028-.13c4.617.812,10.157,9.645,13.014,21.219C359.452,472.663,359.543,480.633,357.916,485.318Z" transform="translate(-261.119 -342.272)" opacity="0.1"/>
      <path id="Path_93" data-name="Path 93" d="M406.582,426.827l-.772.133c-.795-2.088-1.587-4.179-2.518-6.21-.484-1.061-1.007-2.108-1.415-3.2-1.528-4.2-1.267-9.192-4.1-12.655a4.333,4.333,0,0,0-.688-.7l1.884-.506a25.553,25.553,0,0,1,3.435,8.519,33.995,33.995,0,0,0,.976,4.408,30.481,30.481,0,0,0,1.451,3.152A14.484,14.484,0,0,1,406.582,426.827Z" transform="translate(-301.439 -314.234)" opacity="0.1"/>
      <path id="Path_94" data-name="Path 94" d="M447.909,366.8a9.356,9.356,0,0,1,7.444-2.263,14.242,14.242,0,0,1,4.38,1.7,23.535,23.535,0,0,1,7.328,5.455,21.866,21.866,0,0,1,2.891,4.866,11.8,11.8,0,0,1,.849,2.379c.69,3.2-1,6.374-2.637,9.209l-3.14,5.449a47.073,47.073,0,0,1-4.776,7.223c-.866,1.013-1.816,1.949-2.764,2.886l-4.162,4.108a.622.622,0,0,1-.283.19.628.628,0,0,1-.489-.2l-1.375-1.095a23.391,23.391,0,0,0,3.514-2.979,47.23,47.23,0,0,0,4.75-6.136l4.578-6.637c1.338-1.944,2.736-4.082,2.586-6.436a9.9,9.9,0,0,0-.939-3.234q-1.18-2.77-2.563-5.452a27.7,27.7,0,0,0-3.658-5.681,11.9,11.9,0,0,0-5.545-3.726,4.617,4.617,0,0,0-2.009-.192c-1.488.246-2.546,1.525-3.488,2.713l-2.869,3.678c-.654.835-1.253,1.8-1.293.218C444.168,370.58,446.454,368.252,447.909,366.8Z" transform="translate(-335.246 -286.081)" fill="#f2ca35"/>
      <path id="Path_95" data-name="Path 95" d="M454.966,399.216c.566,2.178,1.4,4.651,3.5,5.477a4.8,4.8,0,0,0,4.51-.849,12.651,12.651,0,0,0,3.033-3.678,35.72,35.72,0,0,1,2.34-3.548c1.678-2.1,3.961-3.774,5.092-6.224.334-.73.566-1.511.945-2.212a13.832,13.832,0,0,1,1.369-1.831,19.842,19.842,0,0,0,3.087-5.358,4.309,4.309,0,0,0,.382-2.116c-.2-1.378-1.505-2.283-2.719-2.959a5.861,5.861,0,0,0-2.351-.871,3.8,3.8,0,0,0-3.191,1.536,6.14,6.14,0,0,0-1.166,3.443c-.085,1.508.209,3.075-.283,4.5a7.075,7.075,0,0,1-1.067,1.845,21.627,21.627,0,0,1-5.8,5.356,10.069,10.069,0,0,0-.687-3.121c-.215-.549-4.43,0-4.979.091-1.086.158-3.191.283-3.876,1.318s.164,2.775.441,3.819Z" transform="translate(-341.415 -293.688)" fill="#a1616a"/>
      <path id="Path_96" data-name="Path 96" d="M450.323,373.068a14.9,14.9,0,0,0-1.743,1.7,9.717,9.717,0,0,0-2.028,5.443,23.39,23.39,0,0,0,.447,5.868q.458,2.609,1.084,5.18a3.574,3.574,0,0,1,2.377-2.829,7.593,7.593,0,0,1,3.839-.226,18.763,18.763,0,0,1,4.827,1.395l.6-8.366a14.577,14.577,0,0,0-.02-3.395,7.483,7.483,0,0,0-3.491-5.078C453.941,371.376,452.36,371.289,450.323,373.068Z" transform="translate(-336.873 -291.313)" fill="#46455b"/>
      <path id="Path_97" data-name="Path 97" d="M657.233,325.374a19.754,19.754,0,0,0-1.952-6.521,23.461,23.461,0,0,1-1.78-3.768c-.32-1.084-.382-2.224-.637-3.324s-.7-2.153-1.067-3.228c-2.56-7.639-.637-16-1.463-24-.308-2.954-1.214-6.193-3.774-7.732a10.71,10.71,0,0,0-5.141-1.132l-.818-.037-1.313-.065a21.736,21.736,0,0,0-5.658.235c-2.263.5-4.945,2.088-5.658,4.4-.39-.2-.784-.379-1.146-.546a20.55,20.55,0,0,0-4.552-1.415,17.01,17.01,0,0,0,3.865-1.494c2.829-1.647,3.486-6.456,4.063-9.673a20.722,20.722,0,0,0-.908-9.667,16.625,16.625,0,0,0-1.287-3.2,11.172,11.172,0,0,0-15.889-3.933,33.9,33.9,0,0,0-7.107,6.674c-.283.334-1.466,1.516-1.072,2.014.221.283.948.057,1.712-.283a10.379,10.379,0,0,0-.888,4.215,10.5,10.5,0,0,0,5.158,9.031l.283,2.6v.02c.031.869.045,1.737.057,2.6,0,.608,0,1.231-.017,1.853a12.777,12.777,0,0,1-4.221,3.14,6.763,6.763,0,0,0,3.831-.622,5.46,5.46,0,0,1-.99,1.907c.339-.119.679-.226,1.018-.339a7.405,7.405,0,0,0-.472.888,6.875,6.875,0,0,0-.456,1.511,21.221,21.221,0,0,0-1.864,3.333h0c-.238.529-.45,1.067-.642,1.613v.037q-.283.815-.5,1.652h0q-.1.4-.187.806v.059q-.17.819-.283,1.649v.113c-.031.257-.059.518-.079.778v.04c-.023.283-.04.552-.048.829v.976c0,.532.034,1.067.085,1.6a.673.673,0,0,0,.02.2c.023.218.048.436.079.656a.386.386,0,0,0,.02.15c.037.263.079.523.127.784a.942.942,0,0,0,.037.173c.04.209.082.416.13.625l.051.215c.062.26.127.518.2.778.042.147.085.283.13.438a11.023,11.023,0,0,1,.283,1.632l-1.548.051q-4.968.141-9.927.45a3.9,3.9,0,0,0-3.6-2.73,7.094,7.094,0,0,0-.849-.051h0a4.707,4.707,0,0,0,.809-.88,3.9,3.9,0,0,0,.645-1.415,3.872,3.872,0,0,0-1.171,1.027c-.1.141-.2.283-.283.413v-.849a.133.133,0,0,0-.136-.136h-.283a.133.133,0,0,0-.136.136v1.729h-.153c-.187.017-.368.04-.546.074A3.666,3.666,0,0,0,586,306.116a4.527,4.527,0,0,0,1.6,3.446,9.926,9.926,0,0,0,.438,1.907,2.547,2.547,0,0,0,1.021,1.587,2.334,2.334,0,0,0,1.115.2c3.146,0,6.122-1.451,9.254-1.7,1.935-.156,3.879.144,5.82.085.283,0,.566-.028.849-.051-2.654,13.141-5.865,26.45-4.187,39.724a3.825,3.825,0,0,0,.942,2.439c.874.8,2.221.668,3.395.566a28.375,28.375,0,0,1,9.6.767,2.918,2.918,0,0,0,1.352.048,2.512,2.512,0,0,0,.283-.082l.079-.031c.059-.023.116-.045.17-.071l.082-.042.139-.085c.023-.017.048-.031.068-.048a1.1,1.1,0,0,0,.139-.113l.04-.034a1.992,1.992,0,0,0,.15-.164l.034-.051a1.385,1.385,0,0,0,.091-.133c.014-.023.028-.045.04-.068s.045-.085.065-.127a.533.533,0,0,0,.031-.076c.008-.025.037-.093.054-.141s0-.045.023-.071a.812.812,0,0,0,.054-.212v-.045a1.348,1.348,0,0,1,.031-.181.327.327,0,0,0,0-.093v-.719h0a7.266,7.266,0,0,0-.054-.75,4.487,4.487,0,0,0,.617.133h0a3.457,3.457,0,0,0,.588.042h.028a1.206,1.206,0,0,0,.283-.023h0a2.321,2.321,0,0,0,.243-.051h.037a1.305,1.305,0,0,0,.215-.085l.034-.02a1.149,1.149,0,0,0,.167-.113l.026-.02a.988.988,0,0,0,.141-.164l.026-.042a.961.961,0,0,0,.1-.218c.161-.546-.206-1.163.382-1.664a22.426,22.426,0,0,1,1.225,5.506,3.59,3.59,0,0,0,.4,1.98,8.306,8.306,0,0,0,.849.866,4.881,4.881,0,0,1,.826,3.616c-.026.512-.054,1.024-.091,1.536a75.964,75.964,0,0,1-4.131,20.033,10.8,10.8,0,0,1-.866,1.98,9.587,9.587,0,0,1-2.125,2.337,26.946,26.946,0,0,1-3.777,2.685,11.555,11.555,0,0,0-1.921,1.276c-.023-.065-.048-.127-.065-.2-.031-.13-.074-.283-.2-.331a.385.385,0,0,0-.283.045c-1.327.583-2.654,1.166-3.93,1.847a4.585,4.585,0,0,0-1.658,1.282,1.739,1.739,0,0,0-.108,1.98,2.528,2.528,0,0,0,1.649.77c.787.139,1.576.238,2.365.311a3.574,3.574,0,0,0-1.044.928,1.739,1.739,0,0,0-.107,1.98,2.529,2.529,0,0,0,1.649.77c5.016.886,10.159.283,15.252.133a16.738,16.738,0,0,0,4.914-.6,2.476,2.476,0,0,0,.849-.444c.713-.628.642-1.731.518-2.668l-.518-3.825a1,1,0,0,0-.223.042,56.532,56.532,0,0,1,2.323-10.581c1.726-5.361,4.295-10.643,4.261-16.254v-.407c-.048-1.757-.362-3.494-.566-5.242a76.367,76.367,0,0,1-.263-8.816,18.961,18.961,0,0,1,.24-3.443.569.569,0,0,1,.026-.116l4.7-.124a3.312,3.312,0,0,0,1.516-.283,1,1,0,0,0,.549-1.214,4,4,0,0,0,5.274-2.433,4.255,4.255,0,0,0,.1-.45.137.137,0,0,1,0-.034c.02-.141.034-.283.04-.422v-.071h0a7.888,7.888,0,0,0-.444-2.857,48.031,48.031,0,0,0-3.927-7.715c-.741-1.3-1.46-2.614-2.159-3.935l.614.789a2.674,2.674,0,0,0,.829.8c1.146.591,2.345-.6,3.511-1.149,1.547-.73,3.358-.3,5.067-.178s3.768-.32,4.38-1.9A4.176,4.176,0,0,0,657.233,325.374Zm-29.46-42.519c0,.605.04,1.219.088,1.836a17.159,17.159,0,0,0-1.98-2.631Z" transform="translate(-436.903 -202.91)" fill="url(#linear-gradient-3)"/>
      <path id="Path_98" data-name="Path 98" d="M601.3,433.671a.792.792,0,1,1,.521.393c-.492.671-1.01,1.132-1.154,1.021S600.8,434.342,601.3,433.671Z" transform="translate(-447.391 -335.001)" fill="#99d55c"/>
      <path id="Path_99" data-name="Path 99" d="M601.962,434.511a2.857,2.857,0,0,1,.849-.761,2.9,2.9,0,0,1-.472,1.047c-.368.5-.753.849-.849.761S601.594,435.009,601.962,434.511Z" transform="translate(-447.993 -335.79)" opacity="0.1"/>
      <path id="Path_100" data-name="Path 100" d="M541.269,346.77h.283a.136.136,0,0,1,.136.136v3.205h-.538v-3.205a.136.136,0,0,1,.119-.136Z" transform="translate(-388.05 -248.663)" fill="#f6987e"/>
      <path id="Path_101" data-name="Path 101" d="M595.053,444.521a4.527,4.527,0,0,1-9.053,0,3.64,3.64,0,0,1,3.3-3.661,6.644,6.644,0,0,1,1.228-.11,6.946,6.946,0,0,1,.849.051C593.469,441.061,595.053,442.312,595.053,444.521Z" transform="translate(-436.903 -340.809)" fill="#fc4a4a"/>
      <path id="Path_102" data-name="Path 102" d="M599.737,440.828c-.082.156-.526.283-1.064.283a1.876,1.876,0,0,1-1.013-.212,6.649,6.649,0,0,1,1.228-.11A6.929,6.929,0,0,1,599.737,440.828Z" transform="translate(-445.264 -340.836)" opacity="0.1"/>
      <path id="Path_103" data-name="Path 103" d="M591.282,449a4.527,4.527,0,0,1-4.527-4.527,3.613,3.613,0,0,1,3.194-3.638,6.094,6.094,0,0,0-.651.085,3.64,3.64,0,0,0-3.3,3.661,4.527,4.527,0,0,0,4.527,4.527,4.435,4.435,0,0,0,1.016-.116C591.455,449,591.375,449,591.282,449Z" transform="translate(-436.903 -340.874)" opacity="0.1"/>
      <path id="Path_104" data-name="Path 104" d="M673.9,627.192a3.226,3.226,0,0,0,2.43.489l3.867-.283c3.072-.226,6.25-.481,8.96-1.944a2.131,2.131,0,0,0,.744-.566,2.4,2.4,0,0,0,.325-1.219,56.472,56.472,0,0,1,2.484-12.332c1.7-5.333,4.244-10.59,4.21-16.172v-.4c-.048-1.748-.356-3.477-.546-5.217a76.254,76.254,0,0,1-.26-8.77,19.035,19.035,0,0,1,.238-3.426c.178-.919.849-1.842.438-2.651-.795-1.57-3.678-2.147-5.228-2.2a21.069,21.069,0,0,0-6.159,1.016,3.965,3.965,0,0,0-1.72.778,3.274,3.274,0,0,0-.823,2.348c-.107,3.777,2.068,7.291,2.241,11.062a3.648,3.648,0,0,0,.4,1.98,8.209,8.209,0,0,0,.849.863,4.9,4.9,0,0,1,.815,3.6q-.038.764-.088,1.528A76.067,76.067,0,0,1,682.99,615.6a10.874,10.874,0,0,1-.849,1.98,9.6,9.6,0,0,1-2.1,2.326,26.831,26.831,0,0,1-3.732,2.671,7.59,7.59,0,0,0-2.422,1.845A2.153,2.153,0,0,0,673.9,627.192Z" transform="translate(-499.567 -435.275)" fill="#fda8a8"/>
      <path id="Path_105" data-name="Path 105" d="M673.9,627.192a3.226,3.226,0,0,0,2.43.489l3.867-.283c3.072-.226,6.25-.481,8.96-1.944a2.131,2.131,0,0,0,.744-.566,2.4,2.4,0,0,0,.325-1.219,56.472,56.472,0,0,1,2.484-12.332c1.7-5.333,4.244-10.59,4.21-16.172v-.4c-.048-1.748-.356-3.477-.546-5.217a76.254,76.254,0,0,1-.26-8.77,19.035,19.035,0,0,1,.238-3.426c.178-.919.849-1.842.438-2.651-.795-1.57-3.678-2.147-5.228-2.2a21.069,21.069,0,0,0-6.159,1.016,3.965,3.965,0,0,0-1.72.778,3.274,3.274,0,0,0-.823,2.348c-.107,3.777,2.068,7.291,2.241,11.062a3.648,3.648,0,0,0,.4,1.98,8.209,8.209,0,0,0,.849.863,4.9,4.9,0,0,1,.815,3.6q-.038.764-.088,1.528A76.067,76.067,0,0,1,682.99,615.6a10.874,10.874,0,0,1-.849,1.98,9.6,9.6,0,0,1-2.1,2.326,26.831,26.831,0,0,1-3.732,2.671,7.59,7.59,0,0,0-2.422,1.845A2.153,2.153,0,0,0,673.9,627.192Z" transform="translate(-499.567 -435.275)" opacity="0.1"/>
      <path id="Path_106" data-name="Path 106" d="M673.9,684.676a3.226,3.226,0,0,0,2.43.49l3.867-.283c3.072-.226,6.25-.481,8.96-1.944a2.132,2.132,0,0,0,.744-.566,2.4,2.4,0,0,0,.325-1.219,56.473,56.473,0,0,1,2.484-12.332c1.7-5.333,4.244-10.59,4.21-16.172a81.178,81.178,0,0,1-9.848.487,76.064,76.064,0,0,1-4.083,19.932,10.872,10.872,0,0,1-.849,1.98,9.6,9.6,0,0,1-2.1,2.326,26.82,26.82,0,0,1-3.732,2.671,7.591,7.591,0,0,0-2.422,1.845A2.169,2.169,0,0,0,673.9,684.676Z" transform="translate(-499.567 -492.759)" fill="#eeeff3"/>
      <path id="Path_107" data-name="Path 107" d="M673.9,684.676a3.226,3.226,0,0,0,2.43.49l3.867-.283c3.072-.226,6.25-.481,8.96-1.944a2.132,2.132,0,0,0,.744-.566,2.4,2.4,0,0,0,.325-1.219,56.473,56.473,0,0,1,2.484-12.332c1.7-5.333,4.244-10.59,4.21-16.172a81.178,81.178,0,0,1-9.848.487,76.064,76.064,0,0,1-4.083,19.932,10.872,10.872,0,0,1-.849,1.98,9.6,9.6,0,0,1-2.1,2.326,26.82,26.82,0,0,1-3.732,2.671,7.591,7.591,0,0,0-2.422,1.845A2.169,2.169,0,0,0,673.9,684.676Z" transform="translate(-499.567 -492.759)" opacity="0.1"/>
      <path id="Path_108" data-name="Path 108" d="M668.736,751.01a14.575,14.575,0,0,0,2.665-1.273l4.263-2.4a3.615,3.615,0,0,1,1.265-.512l.509,3.805a2.948,2.948,0,0,1-.509,2.657,2.479,2.479,0,0,1-.849.441,16.328,16.328,0,0,1-4.855.6c-5.03.161-10.111.75-15.068-.133a2.526,2.526,0,0,1-1.627-.764,1.727,1.727,0,0,1,.1-1.961,4.547,4.547,0,0,1,1.638-1.276c1.262-.679,2.572-1.256,3.882-1.836a.38.38,0,0,1,.269-.045c.127.042.167.2.2.328a3.413,3.413,0,0,0,1.828,2.1C662.464,750.733,666.852,751.61,668.736,751.01Z" transform="translate(-485.859 -560.287)" fill="#bbbdc8"/>
      <path id="Path_109" data-name="Path 109" d="M668.736,751.01a14.575,14.575,0,0,0,2.665-1.273l4.263-2.4a3.615,3.615,0,0,1,1.265-.512l.509,3.805a2.948,2.948,0,0,1-.509,2.657,2.479,2.479,0,0,1-.849.441,16.328,16.328,0,0,1-4.855.6c-5.03.161-10.111.75-15.068-.133a2.526,2.526,0,0,1-1.627-.764,1.727,1.727,0,0,1,.1-1.961,4.547,4.547,0,0,1,1.638-1.276c1.262-.679,2.572-1.256,3.882-1.836a.38.38,0,0,1,.269-.045c.127.042.167.2.2.328a3.413,3.413,0,0,0,1.828,2.1C662.464,750.733,666.852,751.61,668.736,751.01Z" transform="translate(-485.859 -560.287)" opacity="0.1"/>
      <path id="Path_110" data-name="Path 110" d="M683.9,641.192a3.226,3.226,0,0,0,2.43.489l3.867-.283c3.073-.226,6.25-.481,8.96-1.944a2.132,2.132,0,0,0,.744-.566,2.4,2.4,0,0,0,.325-1.219,56.465,56.465,0,0,1,2.484-12.332c1.7-5.333,4.244-10.59,4.21-16.172v-.4c-.048-1.748-.356-3.477-.546-5.217a76.253,76.253,0,0,1-.26-8.77,19.039,19.039,0,0,1,.238-3.426c.178-.919.849-1.842.439-2.651-.8-1.57-3.678-2.147-5.228-2.2a21.064,21.064,0,0,0-6.159,1.016,3.964,3.964,0,0,0-1.72.778,3.274,3.274,0,0,0-.823,2.348c-.107,3.777,2.068,7.291,2.241,11.062a3.648,3.648,0,0,0,.4,1.98,8.2,8.2,0,0,0,.849.863,4.9,4.9,0,0,1,.815,3.6c-.026.509-.054,1.018-.088,1.528a76.065,76.065,0,0,1-4.082,19.931,10.876,10.876,0,0,1-.849,1.98,9.6,9.6,0,0,1-2.1,2.326,26.827,26.827,0,0,1-3.732,2.671,7.592,7.592,0,0,0-2.422,1.845A2.153,2.153,0,0,0,683.9,641.192Z" transform="translate(-506.738 -445.314)" fill="#fda8a8"/>
      <path id="Path_111" data-name="Path 111" d="M683.9,698.676a3.226,3.226,0,0,0,2.43.489l3.867-.283c3.073-.226,6.25-.481,8.96-1.944a2.131,2.131,0,0,0,.744-.566,2.4,2.4,0,0,0,.325-1.219,56.465,56.465,0,0,1,2.484-12.332c1.7-5.333,4.244-10.59,4.21-16.172a81.2,81.2,0,0,1-9.848.487,76.066,76.066,0,0,1-4.082,19.931,10.875,10.875,0,0,1-.849,1.98,9.6,9.6,0,0,1-2.1,2.326,26.827,26.827,0,0,1-3.732,2.671,7.591,7.591,0,0,0-2.422,1.845A2.169,2.169,0,0,0,683.9,698.676Z" transform="translate(-506.738 -502.798)" fill="#eeeff3"/>
      <path id="Path_112" data-name="Path 112" d="M678.736,765.01a14.566,14.566,0,0,0,2.665-1.273l4.264-2.4a3.613,3.613,0,0,1,1.265-.512l.509,3.805a2.947,2.947,0,0,1-.509,2.657,2.479,2.479,0,0,1-.849.441,16.326,16.326,0,0,1-4.855.6c-5.03.161-10.111.75-15.068-.133a2.527,2.527,0,0,1-1.627-.764,1.727,1.727,0,0,1,.1-1.961,4.548,4.548,0,0,1,1.638-1.276c1.262-.679,2.572-1.256,3.882-1.836a.379.379,0,0,1,.269-.045c.127.042.167.2.2.328a3.413,3.413,0,0,0,1.828,2.1C672.464,764.733,676.852,765.61,678.736,765.01Z" transform="translate(-493.03 -570.326)" fill="#bbbdc8"/>
      <path id="Path_113" data-name="Path 113" d="M665.81,332.789c1.378-1.7,1.415-4.068,1.381-6.247,0-.849-.025-1.726-.057-2.589v-.02a29.183,29.183,0,0,0-.5-4.725h0a17.149,17.149,0,0,0-.594-2.207c.187-.042.374-.082.566-.116a23.182,23.182,0,0,1,8.983,0,18.3,18.3,0,0,1,2.546.331.849.849,0,0,1,.512.359,4.838,4.838,0,0,1-.368,1.958h0a3.829,3.829,0,0,0-.2,1.086,7.483,7.483,0,0,0,.158,1.033c.133.625.308,1.245.391,1.879.144,1.081.017,2.181.088,3.271a4.158,4.158,0,0,0,1.214,2.945A57.187,57.187,0,0,0,665.81,332.789Z" transform="translate(-494.134 -251.674)" fill="#fda8a8"/>
      <path id="Path_114" data-name="Path 114" d="M681.389,321.544c-.376.031-.75.068-1.132.11a57,57,0,0,0-11.1,2.32v-.02l-.5-4.725h0v-.863c0-.484-.014-.973-.026-1.46a23.182,23.182,0,0,1,8.983,0,18.315,18.315,0,0,1,2.546.331c0,.461,0,.922.017,1.383a6.177,6.177,0,0,0,.127.934h0A3.554,3.554,0,0,0,681.389,321.544Z" transform="translate(-496.156 -251.688)" opacity="0.1"/>
      <circle id="Ellipse_36" data-name="Ellipse 36" cx="10.468" cy="10.468" r="10.468" transform="translate(167.628 50.218)" fill="#fda8a8"/>
      <path id="Path_115" data-name="Path 115" d="M644.468,383.871a20.5,20.5,0,0,1,4.278-18.837A12.2,12.2,0,0,1,652.022,362a11,11,0,0,1,5.112-.866,11.354,11.354,0,0,1,4.549.614c1.915.818,3.237,2.594,4.351,4.357a13.88,13.88,0,0,1,2.444,6.131c.1,1.316-.136,2.651.059,3.961.249,1.661,1.174,3.149,1.553,4.784.206.883.249,1.8.382,2.7a25.245,25.245,0,0,0,.871,3.633,130.347,130.347,0,0,0,11.475,26.8,48.58,48.58,0,0,1,3.879,7.675,6.4,6.4,0,0,1,.39,3.808,3.948,3.948,0,0,1-5.208,2.422.993.993,0,0,1-.543,1.205,3.241,3.241,0,0,1-1.5.283l-17.473.464a6.3,6.3,0,0,0-1.361.184c-2.054.526-1.282,1.415-1.5,2.156-.269.905-1.567.832-2.473.566.139,1.321.17,2.937-1.536,3.321a2.883,2.883,0,0,1-1.335-.045,27.845,27.845,0,0,0-9.489-.764c-1.166.108-2.5.238-3.361-.566a3.829,3.829,0,0,1-.931-2.425c-1.74-13.863,1.839-27.746,4.527-41.442a16.448,16.448,0,0,0-.311-6.646Z" transform="translate(-475.567 -283.715)" fill="#f75842"/>
      <path id="Path_116" data-name="Path 116" d="M733.564,363.7a16.85,16.85,0,0,1,1.061,3.59c.11,1-.023,2,.037,3a15.39,15.39,0,0,0,.682,3.262,51.6,51.6,0,0,0,2.012,6.063,4.084,4.084,0,0,1,.512,2.792c-.306.919-1.253,1.488-1.525,2.4a2.846,2.846,0,0,0,1,2.685c.721.7,1.624,1.205,2.292,1.955a13.712,13.712,0,0,1,1.644,2.829,26.182,26.182,0,0,0,2.492,3.635l3.421,4.439a2.67,2.67,0,0,0,.82.792c1.132.588,2.317-.6,3.469-1.132,1.528-.727,3.316-.3,5-.178s3.723-.317,4.326-1.9a4.163,4.163,0,0,0,.122-1.98,19.73,19.73,0,0,0-1.929-6.487,23.412,23.412,0,0,1-1.757-3.751c-.317-1.078-.379-2.212-.631-3.307s-.7-2.142-1.052-3.211c-2.529-7.6-.628-15.914-1.446-23.881-.3-2.939-1.2-6.162-3.729-7.692A10.614,10.614,0,0,0,745.3,346.5l-.806-.037-1.3-.065a21.245,21.245,0,0,0-5.593.235c-2.575.566-5.672,2.566-5.774,5.44A33.512,33.512,0,0,0,733.564,363.7Z" transform="translate(-541.464 -273.097)" fill="#f2ca35"/>
      <path id="Path_117" data-name="Path 117" d="M772.09,346.54a32.613,32.613,0,0,1,.518,5.834c.051,5.585.654,11.147,1.259,16.692l.4,3.678a3.893,3.893,0,0,0,.566,1.938,1.335,1.335,0,0,0,1.788.41,13.621,13.621,0,0,0,.2-4q-.212-4.269-.422-8.541c-.136-2.773-.283-5.548-.62-8.3a54.93,54.93,0,0,0-1.166-6.34,7.493,7.493,0,0,0-.4-1.265l-.806-.037Z" transform="translate(-570.345 -273.253)" opacity="0.1"/>
      <path id="Path_118" data-name="Path 118" d="M677.25,354.475a10.715,10.715,0,0,0-5.2.226,13.253,13.253,0,0,0-5.851,5.766c-.965,2.218-.589,4.776,0,7.124,1.6,6.467,4.79,12.706,9.9,16.975a36.887,36.887,0,0,0,4.954,3.395,33.725,33.725,0,0,0,7.1,3.313,4.351,4.351,0,0,0,2.159.243,1.7,1.7,0,0,0,1.415-1.466A83.2,83.2,0,0,1,680.3,381.8a23.633,23.633,0,0,1-2.8-2.546c-1.3-1.457-2.21-3.217-3.466-4.708-1.132-1.338-2.546-2.467-3.4-4a10.667,10.667,0,0,1-1.055-3.333,12.608,12.608,0,0,1,.441-7.1,6.234,6.234,0,0,1,5.5-3.995,9.747,9.747,0,0,1,3.545.987l7.158,3.022c-.088-.04.41-1.282.388-1.454-.068-.54-.164-.549-.566-.959a9.187,9.187,0,0,0-2.617-1.565A22.392,22.392,0,0,0,677.25,354.475Z" transform="translate(-493.992 -278.794)" fill="#f2ca35"/>
      <path id="Path_119" data-name="Path 119" d="M650.628,263.568a12.117,12.117,0,0,0,5.486-2.829l-1.5,7.854a38.607,38.607,0,0,0,4.329-2.331,25.027,25.027,0,0,1-1.415,10.612,14.209,14.209,0,0,1-7.042,7.823c2.908.487,5.52-1.6,8.108-3.013,1.8-.982,4.889.028,6.863-.566a21.738,21.738,0,0,0,4.906-1.8c2.807-1.638,3.443-6.422,4.012-9.619a20.818,20.818,0,0,0-.894-9.619,16.919,16.919,0,0,0-1.27-3.186,10.994,10.994,0,0,0-15.7-3.91,34.108,34.108,0,0,0-7.019,6.64c-.283.331-1.451,1.508-1.064,2,.472.6,3.245-1.109,3.715-1.341C652.011,260.8,651.168,263.435,650.628,263.568Z" transform="translate(-481.616 -204.862)" fill="#ffd566"/>
      <g id="Group_316" data-name="Group 316" transform="translate(164.358 86.474)" opacity="0.1">
        <path id="Path_120" data-name="Path 120" d="M656.367,456.885a2.883,2.883,0,0,1-1.335-.045,27.845,27.845,0,0,0-9.489-.764c-1.166.107-2.5.238-3.361-.566a3.829,3.829,0,0,1-.931-2.425c-1.74-13.863,1.839-27.746,4.527-41.442a16.449,16.449,0,0,0-.311-6.646l-.127-.439a20.045,20.045,0,0,1,.178-11.41,20.2,20.2,0,0,0-1.033,13.682l.127.438a16.457,16.457,0,0,1,.311,6.646c-2.679,13.7-6.258,27.587-4.527,41.442a3.845,3.845,0,0,0,.931,2.425c.849.8,2.2.665,3.361.566a27.844,27.844,0,0,1,9.489.764,2.884,2.884,0,0,0,1.335.045c1.392-.314,1.627-1.449,1.593-2.572A2.215,2.215,0,0,1,656.367,456.885Z" transform="translate(-639.941 -393.15)"/>
        <path id="Path_121" data-name="Path 121" d="M727.669,586.652a.993.993,0,0,1-.543,1.205,3.241,3.241,0,0,1-1.5.283l-17.473.464a6.3,6.3,0,0,0-1.361.184c-2.054.526-1.282,1.415-1.5,2.156-.269.905-1.567.832-2.473.566a4.293,4.293,0,0,1-.238,2.4c.795.119,1.649.014,1.862-.7s-.552-1.63,1.5-2.156a6.307,6.307,0,0,1,1.361-.184l17.462-.464a3.242,3.242,0,0,0,1.5-.283.993.993,0,0,0,.543-1.205,3.947,3.947,0,0,0,5.209-2.422,4.07,4.07,0,0,0,.147-.973A3.921,3.921,0,0,1,727.669,586.652Z" transform="translate(-684.858 -531.095)"/>
      </g>
      <path id="Path_122" data-name="Path 122" d="M624.537,380.56a97.871,97.871,0,0,1,3.981,9.809,19.482,19.482,0,0,1,1.437,8.346c-.308,2.829-1.98,5.687-4.7,6.578a12.414,12.414,0,0,1-3.6.41,76.345,76.345,0,0,0-8.688.7,38.271,38.271,0,0,1-4.049.45c-1.918.062-3.836-.238-5.749-.082-3.1.252-6.035,1.7-9.141,1.7a2.32,2.32,0,0,1-1.1-.2,2.531,2.531,0,0,1-1.01-1.579c-.433-1.381-.772-2.965-.04-4.213.9-1.536,2.954-1.845,4.733-1.98q6.009-.424,12.032-.594c3.426-.1,7.138-.226,9.794-2.393a1.4,1.4,0,0,0,.427-.492,1.57,1.57,0,0,0-.034-1.01,44,44,0,0,1-1.341-12.6,1.867,1.867,0,0,1,.283-1.081,1.774,1.774,0,0,1,.9-.521,13.13,13.13,0,0,1,7.322-.2" transform="translate(-440.808 -297.648)" fill="#fda8a8"/>
      <path id="Path_123" data-name="Path 123" d="M680.6,370.832a2.124,2.124,0,0,0-1.024.755c.113-1.18-.04-2.371-.017-3.559a5.41,5.41,0,0,1,.993-3.35,5.353,5.353,0,0,1,4.091-1.638,8.6,8.6,0,0,1,6.091,2.079,6.224,6.224,0,0,1,1.91,3.678c.051.388.221,1.842-.184,2.091-.354.221-1.7-.54-2.13-.662A14.293,14.293,0,0,0,680.6,370.832Z" transform="translate(-503.988 -285.082)" fill="#f75842"/>
      <ellipse id="Ellipse_37" data-name="Ellipse 37" cx="1.5" cy="2" rx="1.5" ry="2" transform="translate(132.115 15.116)" fill="#f2ca35" opacity="0.1"/>
      <circle id="Ellipse_38" data-name="Ellipse 38" cx="2" cy="2" r="2" transform="translate(145.115 53.116)" fill="#f2ca35" opacity="0.1"/>
      <ellipse id="Ellipse_39" data-name="Ellipse 39" cx="1.5" cy="2.5" rx="1.5" ry="2.5" transform="translate(108.115 16.116)" fill="#f2ca35" opacity="0.1"/>
      <ellipse id="Ellipse_40" data-name="Ellipse 40" cx="4.5" cy="5" rx="4.5" ry="5" transform="translate(44.115 104.116)" fill="#f2ca35" opacity="0.1"/>
      <circle id="Ellipse_41" data-name="Ellipse 41" cx="2.5" cy="2.5" r="2.5" transform="translate(251.115 26.116)" fill="#f2ca35" opacity="0.1"/>
      <circle id="Ellipse_42" data-name="Ellipse 42" cx="6.5" cy="6.5" r="6.5" transform="translate(249.115 48.116)" fill="#f2ca35" opacity="0.1"/>
      <ellipse id="Ellipse_43" data-name="Ellipse 43" cx="2" cy="2.5" rx="2" ry="2.5" transform="translate(264.115 34.116)" fill="#f2ca35" opacity="0.1"/>
      <ellipse id="Ellipse_44" data-name="Ellipse 44" cx="2" cy="1.5" rx="2" ry="1.5" transform="translate(247.115 71.116)" fill="#f2ca35" opacity="0.1"/>
      <ellipse id="Ellipse_45" data-name="Ellipse 45" cx="2" cy="1.5" rx="2" ry="1.5" transform="translate(128.115 31.116)" fill="#f2ca35" opacity="0.1"/>
      <ellipse id="Ellipse_46" data-name="Ellipse 46" cx="2.5" cy="2" rx="2.5" ry="2" transform="translate(53.115 131.116)" fill="#f2ca35" opacity="0.1"/>
      <ellipse id="Ellipse_47" data-name="Ellipse 47" cx="1.5" cy="2.5" rx="1.5" ry="2.5" transform="translate(51.115 85.116)" fill="#f2ca35" opacity="0.1"/>
      <ellipse id="Ellipse_48" data-name="Ellipse 48" cx="2.5" cy="1.5" rx="2.5" ry="1.5" transform="translate(159.115 13.116)" fill="#f2ca35" opacity="0.1"/>
      <ellipse id="Ellipse_49" data-name="Ellipse 49" cx="2" cy="1.5" rx="2" ry="1.5" transform="translate(166.115 31.116)" fill="#f2ca35" opacity="0.1"/>
    </g>
    <g id="undraw_exams_g4ow" transform="translate(1159.999 423.853)">
      <path id="Path_124" data-name="Path 124" d="M336.757,159.282v.433q-.038,3.755-.445,7.491a.266.266,0,0,1,0,.045c-.021.207-.045.412-.069.619-.04.35-.083.7-.131,1.047a75.308,75.308,0,0,1-2.744,12.562h0a67.743,67.743,0,0,1-7.163,15.772q-1.409,2.261-3,4.376h0c-.566.747-1.145,1.478-1.742,2.2q-.628.754-1.28,1.485l-.271.3a70.608,70.608,0,0,1-7.377,7.01,115.779,115.779,0,0,1-13.581,9.5c-.267.164-.535.326-.8.476a.391.391,0,0,1-.059.036,143.22,143.22,0,0,1-19.775,10.106,89.693,89.693,0,0,1-23.03,6.244c-11,1.352-22.131.252-33.063-1.637a214.864,214.864,0,0,1-26.89-6.425l-1.452-.455q-1.128-.359-2.254-.733-6.8-2.249-13.445-5A176.731,176.731,0,0,1,146.454,207.7q-1.9-1.28-3.753-2.618-2.584-1.861-5.107-3.831l-1.038-.8a106.673,106.673,0,0,1-12.331-11.325,62.879,62.879,0,0,1-12.374-19.037q-.681-1.692-1.247-3.448l-.036-.117c-.19-.595-.366-1.19-.528-1.809q-.357-1.328-.626-2.689c-.038-.174-.071-.347-.1-.524a45.025,45.025,0,0,1-.75-9.264,42.833,42.833,0,0,1,.952-8.091h0a36.5,36.5,0,0,1,2.7-7.989h0a28.793,28.793,0,0,1,4.124-6.361h0a24.328,24.328,0,0,1,3.886-3.631,31.741,31.741,0,0,1,8.412-4.321h0c1.394-.5,2.808-.938,4.229-1.345,1.007-.29,2.018-.566,3.025-.838l2.97-.8c1.9-.519,3.807-1.052,5.683-1.628a64.009,64.009,0,0,0,14.754-6.268c.733-.445,1.48-.933,2.227-1.456q1.428-.992,2.818-2.156h0c.938-.785,1.856-1.625,2.732-2.515.136-.138.269-.276.4-.416.714-.752,1.406-1.54,2.049-2.358.314-.4.619-.807.909-1.221.4-.573.783-1.157,1.135-1.756h0a17.978,17.978,0,0,0,2.727-9.792,15.07,15.07,0,0,0-.155-1.716c-.309-2.1-.607-4.152-.826-6.159-.919-8.3-.531-15.822,5.7-22.892,7.743-8.788,19.9-10.58,30.959-9.878,31.985,2.023,61.1,20.284,86.691,42.025q3.32,2.818,6.558,5.711.816.728,1.635,1.466c4.045,3.643,8.029,7.422,11.739,11.47.3.328.6.657.895.988.181.2.364.407.543.614q1.735,1.963,3.367,4.022a76.189,76.189,0,0,1,7.691,11.66,66.195,66.195,0,0,1,6.753,20.624h0a73.485,73.485,0,0,1,.816,7.893c.04.778.067,1.559.081,2.337v.747C336.76,158.568,336.76,158.92,336.757,159.282Z" transform="translate(-108.55 -48.49)" fill="#f2ca35" opacity="0.1"/>
      <path id="Path_125" data-name="Path 125" d="M381.787,445.692l-3.807,67.77,3.807.05,3.094-68.772Z" transform="translate(-288.033 -338.891)" fill="#3f3d56"/>
      <rect id="Rectangle_148" data-name="Rectangle 148" width="47.117" height="10.233" transform="translate(32.598 141.137)" fill="#f2ca35"/>
      <path id="Path_126" data-name="Path 126" d="M284.318,679.51v6.425H235.647q-2.584-1.861-5.107-3.831V679.51Z" transform="translate(-201.51 -529.333)" fill="#3f3d56"/>
      <path id="Path_127" data-name="Path 127" d="M251.271,530.131c-.133.616-.307,1.226-.49,1.832a23.888,23.888,0,0,0-1.316,5.307c-.169,2.408.476,5.209-1.19,6.958-.428.452-.988.79-1.371,1.273a2.23,2.23,0,0,0-.162.238,3.689,3.689,0,0,0-.388,1.9,33.32,33.32,0,0,0,.269,4.129c.564,4.712,1.678,9.433.214,13.881a21.4,21.4,0,0,1-.926,2.263,17.689,17.689,0,0,0-1.725,4.821,30.371,30.371,0,0,0-.128,3.843q-1.128-.359-2.254-.733-6.8-2.249-13.445-5c.012-.064.024-.131.033-.2a15.16,15.16,0,0,0-.692-6.349c-1.19-4.376-2.875-8.71-3.872-13.117a33.191,33.191,0,0,1-.788-5.235c-.029-.4-.045-.792-.048-1.19-.012-.519,0-1.037.021-1.561.05-1.045.1-2.284-.74-2.92a6.4,6.4,0,0,0-1.6-.614,9.077,9.077,0,0,1-2.558-2.082,3.353,3.353,0,0,0-3-.88c-5.349,1.226-9.281,5.764-14.259,8.057-.193.09-.385.176-.581.257a8.458,8.458,0,0,0-1.825.933,2.08,2.08,0,0,0-.819,1.154,4.318,4.318,0,0,0,.045,1.552,7.921,7.921,0,0,1-.107,2.53,7.724,7.724,0,0,1-.255.952c-.19.564-.445,1.116-.688,1.666q-1.9-1.28-3.753-2.618-2.584-1.861-5.107-3.831l-1.021-.821a106.668,106.668,0,0,1-12.331-11.325,43.127,43.127,0,0,0,1.592-4.219c.2-.84.274-1.713.55-2.53a9.1,9.1,0,0,1,1.314-2.356,31.888,31.888,0,0,1,7.315-7.32c2.948-2.113,6.354-3.807,9.007-6.206a14.214,14.214,0,0,0,2.753-3.263,2.041,2.041,0,0,0,.126-.238,4.939,4.939,0,0,0,.426-1.361c.19-1.066.162-2.237.257-3.26a34.774,34.774,0,0,0,9.788.3c3.8-.426,7.508-1.48,11.3-1.889.286-.033.573-.06.861-.083,1.216-.1,2.434-.119,3.655-.1,1.021,0,2.042.045,3.063.079l11.239.381a11.034,11.034,0,0,1,3.674.545,8.031,8.031,0,0,1,3.36,2.8c.112.152.224.3.328.462a14.516,14.516,0,0,1,1.732,3.424c.045.124.088.238.129.374.107.331.2.664.283,1,.064.264.121.528.174.795a34.13,34.13,0,0,0,.83,3.938c.029.093.059.186.093.276.5,1.394,1.323,2.644,1.947,3.984a14.8,14.8,0,0,1,1.023,3.029A14.97,14.97,0,0,1,251.271,530.131Z" transform="translate(-158.744 -394.577)" fill="#35323e"/>
      <path id="Path_128" data-name="Path 128" d="M255.818,258.932c-1-.8-2.461-.214-3.636.3a23.337,23.337,0,0,1-3.036,1.1,1.283,1.283,0,0,1-.666.069c-.476-.114-.676-.678-1.03-1.021a2.293,2.293,0,0,0-2.42-.131,5.524,5.524,0,0,1-2.432.714c-.909-.071-1.7-.742-2.618-.764-1.618-.038-2.977,1.956-4.507,1.428-.933-.321-1.666-1.535-2.584-1.19-.714.271-.778,1.259-1.209,1.9a4.6,4.6,0,0,1-2.339,1.3,6.72,6.72,0,0,0-4.079,6.861,23.647,23.647,0,0,0,1.454,4.5c1.49,4.352.978,9.262,2.856,13.459.238-.224.371-.307.6-.528a5.506,5.506,0,0,0-.321,3.95c.2.659.519,1.273.761,1.918a17.191,17.191,0,0,1,.609,2.213l2.07,9.133a59.3,59.3,0,0,1,1.761,10.794,31.5,31.5,0,0,1-.543,7.091c3.75-.621,7.182-2.284,10.982-2.263a30.619,30.619,0,0,1,4.16.428,85.63,85.63,0,0,0,12.167.826,4.83,4.83,0,0,0,1.866-.262,13.994,13.994,0,0,0,1.447-.909,6.4,6.4,0,0,1,3.258-.714c5.09-.093,9.995,1.77,15.051,2.427a18.122,18.122,0,0,0,.583-13.593,20.3,20.3,0,0,1-1.247-3.938,19.92,19.92,0,0,1-.057-2.53,18.349,18.349,0,0,0-1.149-6.325,6.5,6.5,0,0,1-.619-2.444,5.553,5.553,0,0,1,.857-2.38,16.514,16.514,0,0,1,7.032-7.677l3.672-2.465a36.23,36.23,0,0,0-2.494-9.431,16.77,16.77,0,0,0-6.075-7.306,20.072,20.072,0,0,0-2.87-1.428,13.335,13.335,0,0,0-4.343-1.19,23.02,23.02,0,0,0-5.092.647C266.312,262.4,260.044,262.294,255.818,258.932Z" transform="translate(-197.453 -208.538)" fill="#f2ca35"/>
      <path id="Path_129" data-name="Path 129" d="M209.532,488.1l-1.747,2.206-3.293,4.157-3.807,4.8-1.064,1.342h-2.063l-51.089.06-31.994.036h-1.428c-.19-.595-.366-1.19-.528-1.809q-.357-1.328-.626-2.689c-.038-.174-.071-.347-.1-.524l11.608-7.589,4.364-.024h0l13.35-.076h0l7.455-.043h2.215l4.969-.026h0l37.87-.217h0l1.937-.012h.84l2.225-.012,8.279-.048,1.59-.6.117.124Z" transform="translate(-111.018 -382.656)" fill="#3f3d56"/>
      <path id="Path_130" data-name="Path 130" d="M206.35,453.765l-.2.238-1.3,1.53-2.675,3.158L196.57,465.3l-49.687-1.268-37.468-.952c-.038-.174-.071-.347-.1-.524a45.026,45.026,0,0,1-.75-9.264l4.155-2.127.952-.49,7.408-3.807,6.5-3.332,16.957,2.2,3.755.488,1.7.219,2.487.324.209.029,39,5.057,4.31.559,2.53.328,7.8,1.014Z" transform="translate(-108.55 -349.515)" fill="#504f60"/>
      <path id="Path_131" data-name="Path 131" d="M464.231,534.51l-.04.935-.238,5.281-1.28,29.032-.271,6.275-.714,16.143-.4,9.119-1.452-.454q-1.128-.359-2.254-.733l3.481-63.3.074-1.328,1.532-.476Z" transform="translate(-374.522 -418.838)" fill="#3f3d56"/>
      <path id="Path_132" data-name="Path 132" d="M116.885,534.22l-.107,2.444-.157,3.569q-.681-1.692-1.247-3.448l-.036-.117c-.19-.595-.366-1.19-.528-1.809Z" transform="translate(-113.319 -418.616)" fill="#3f3d56"/>
      <ellipse id="Ellipse_50" data-name="Ellipse 50" cx="10.946" cy="14.754" rx="10.946" ry="14.754" transform="translate(54.847 50.115)" fill="#a1616a"/>
      <ellipse id="Ellipse_51" data-name="Ellipse 51" cx="10.946" cy="14.754" rx="10.946" ry="14.754" transform="translate(54.847 50.115)" opacity="0.1"/>
      <circle id="Ellipse_52" data-name="Ellipse 52" cx="15.23" cy="15.23" r="15.23" transform="translate(52.111 40.716)" fill="#a1616a"/>
      <path id="Path_133" data-name="Path 133" d="M338.89,183.795a19.5,19.5,0,0,0-2.763.421,22.368,22.368,0,0,0-6.518,3.16,7.756,7.756,0,0,0-2.408,2.013c-1.014,1.511-.621,3.434-1.19,5.111a14.721,14.721,0,0,1-1.3,2.437,29.009,29.009,0,0,0-2.575,7.006c-.133.495-.171,1.166.369,1.356a1.487,1.487,0,0,0,.923-.1c1.706-.564,3.874-.726,5.14.419s1.159,3.174,2.665,4.045c1.725,1.007,4.419-.209,5.985.978.671.509.914,1.325,1.464,1.939,1.28,1.428,3.743,1.359,5.792,1.071,1.176-.167,2.618-.278,3.332.547.343.39.44.926.838,1.278a2.185,2.185,0,0,0,2.718-.34,18.277,18.277,0,0,0,1.611-2.275c1.13-1.428,3.117-2.206,4.283-3.617a8.713,8.713,0,0,0,1.537-4.117l.992-5.328c.4-2.161.769-4.521-.447-6.425-.433-.685-1.054-1.275-1.428-1.985-.25-.476-.39-.978-.681-1.428a5.928,5.928,0,0,0-1.221-1.233l-2.349-1.944a19.754,19.754,0,0,0-2.568-1.9C347.742,182.924,342.721,183.438,338.89,183.795Z" transform="translate(-271.247 -151.322)" fill="#464353"/>
      <path id="Path_134" data-name="Path 134" d="M129.109,340.615c-.564.6-1.085,1.247-1.69,1.809a20.463,20.463,0,0,1-1.666,1.333q-1.4,1.047-2.737,2.168a15.328,15.328,0,0,0-2.508,2.506c-1.271,1.706-1.873,3.829-3.063,5.592-1.052,1.563-2.534,2.8-3.6,4.35a6.73,6.73,0,0,0-1.028,2.158,10.028,10.028,0,0,0-.212,2.282,16.949,16.949,0,0,0,.217,3.757,5.7,5.7,0,0,0,1.787,3.246,7.841,7.841,0,0,0,3.191,1.38,2.873,2.873,0,0,0,1.775.05,2.927,2.927,0,0,0,1.033-.871l2.9-3.332c1.937-2.237,3.95-4.521,6.608-5.83.833-.407,1.711-.714,2.546-1.109a13.713,13.713,0,0,0,7.015-9.007c.238-.93.39-1.88.545-2.829l.419-2.6a.83.83,0,0,0,0-.4.857.857,0,0,0-.3-.362,50.477,50.477,0,0,1-5.649-5.33,13.046,13.046,0,0,0-1.28-1.466c-.6-.476-.554-.44-1.275,0A15.293,15.293,0,0,0,129.109,340.615Z" transform="translate(-111.629 -268.911)" fill="#a1616a"/>
      <path id="Path_135" data-name="Path 135" d="M261.912,421.68a.447.447,0,1,0-.8.39l-.238.117,7.1,14.544,1.283-.626-7.1-14.554Z" transform="translate(-224.622 -332.652)" fill="#3f3d56"/>
      <path id="Path_136" data-name="Path 136" d="M129.109,340.615c-.564.6-1.085,1.247-1.69,1.809a20.463,20.463,0,0,1-1.666,1.333q-1.4,1.047-2.737,2.168a15.328,15.328,0,0,0-2.508,2.506c-1.271,1.706-1.873,3.829-3.063,5.592-1.052,1.563-2.534,2.8-3.6,4.35a6.73,6.73,0,0,0-1.028,2.158,10.028,10.028,0,0,0-.212,2.282,16.949,16.949,0,0,0,.217,3.757,5.7,5.7,0,0,0,1.787,3.246,7.841,7.841,0,0,0,3.191,1.38,2.873,2.873,0,0,0,1.775.05,2.927,2.927,0,0,0,1.033-.871l2.9-3.332c1.937-2.237,3.95-4.521,6.608-5.83.833-.407,1.711-.714,2.546-1.109a13.713,13.713,0,0,0,7.015-9.007c.238-.93.39-1.88.545-2.829l.419-2.6a.83.83,0,0,0,0-.4.857.857,0,0,0-.3-.362,50.477,50.477,0,0,1-5.649-5.33,13.046,13.046,0,0,0-1.28-1.466c-.6-.476-.554-.44-1.275,0A15.293,15.293,0,0,0,129.109,340.615Z" transform="translate(-111.629 -268.911)" opacity="0.04"/>
      <path id="Path_137" data-name="Path 137" d="M470.146,392.992a11.112,11.112,0,0,1-.714,4.467,2.379,2.379,0,0,1-1.323,1.387,3.079,3.079,0,0,1-1.164.043,42.041,42.041,0,0,0-13.919,1.1c1.214-2.427.516-5.338.852-8.031.093-.735.262-1.459.326-2.2.238-2.618-.883-5.159-1.4-7.743a17.324,17.324,0,0,1,0-6.777,4.522,4.522,0,0,1,.583-1.63,3.827,3.827,0,0,1,1.337-1.164,11.225,11.225,0,0,1,6.366-1.078c1.459.1,4.383-.04,5.6.857,1.33.983,1.751,4.283,2.111,5.809a49.131,49.131,0,0,1,1.095,7.108A76.378,76.378,0,0,1,470.146,392.992Z" transform="translate(-370.631 -294.484)" fill="#a1616a"/>
      <path id="Path_138" data-name="Path 138" d="M59.98,436.03l8.567,5.711,38.55-1.428L81.635,436.03Z" transform="translate(-45.706 -332.253)" fill="#fff"/>
      <path id="Path_139" data-name="Path 139" d="M184.284,286.271c-1.406,1.24-2.6,2.7-3.931,4.022a54.093,54.093,0,0,1-5.973,4.89,4.445,4.445,0,0,1,3.094,3.117c.09.35.136.714.238,1.057a5.773,5.773,0,0,0,1.323,2.142c2.413,2.72,5.79,4.733,7.213,8.091a.747.747,0,0,0,.286.4.626.626,0,0,0,.369.043A5.044,5.044,0,0,0,190,307.854a22.811,22.811,0,0,0,4.045-7.12,12.691,12.691,0,0,0,.059-8.091A20.711,20.711,0,0,0,192.227,289q-.926-1.54-1.847-3.074c-.321-.54-.731-1.637-1.361-1.9C187.658,283.432,185.157,285.4,184.284,286.271Z" transform="translate(-158.714 -227.872)" fill="#f2ca35"/>
      <path id="Path_140" data-name="Path 140" d="M459.528,343.036l2.025,4.759a14.713,14.713,0,0,0-13.3,1.844,7.472,7.472,0,0,0-2.734,3.182,1.39,1.39,0,0,1-1.378-.54,2.763,2.763,0,0,1-.509-1.456,11.475,11.475,0,0,1,1.19-5.328,7.672,7.672,0,0,1,1.214-2.265,7.089,7.089,0,0,1,2.07-1.483,46.106,46.106,0,0,1,7.508-3.317c1.095-.355,2.242-.347,2.856.676C459.178,340.328,458.971,341.737,459.528,343.036Z" transform="translate(-363.868 -269.257)" fill="#f2ca35"/>
      <path id="Path_141" data-name="Path 141" d="M132.016,413.259c.507.4.952.883,1.473,1.268a10.527,10.527,0,0,0,1.751.983l2.346,1.128a13.146,13.146,0,0,0,2.273.923c1,.269,2.058.3,3.067.545,1.273.314,2.437.969,3.691,1.347a4.267,4.267,0,0,0,3.769-.347c.654-.493,1.149-1.306,1.961-1.428a2.6,2.6,0,0,1,1.494.428l6.106,3.21a4.652,4.652,0,0,1,2.125,1.74,1.606,1.606,0,0,1-.766,2.294,8.372,8.372,0,0,1-.952.055.746.746,0,0,0-.7.54,1.085,1.085,0,0,0,.15.559,2.339,2.339,0,0,1,.036,1.989,1.423,1.423,0,0,1-1.728.714c.107.921-.895,1.566-1.787,1.811a16.161,16.161,0,0,1-6.939-.152,9.512,9.512,0,0,1-2.646-.714c-.4-.193-.761-.44-1.161-.619a8.287,8.287,0,0,0-3.543-.4c-5.547.1-11.046-.93-16.5-1.954a7.981,7.981,0,0,1-2.915-.952,5.4,5.4,0,0,1-2.011-5.283,15.861,15.861,0,0,1,2.256-5.487l1.273-2.244a2.889,2.889,0,0,1,.685-.9C126.7,410.877,130.412,411.969,132.016,413.259Z" transform="translate(-117.692 -325.2)" fill="#a1616a"/>
      <path id="Path_142" data-name="Path 142" d="M132.016,413.259c.507.4.952.883,1.473,1.268a10.527,10.527,0,0,0,1.751.983l2.346,1.128a13.146,13.146,0,0,0,2.273.923c1,.269,2.058.3,3.067.545,1.273.314,2.437.969,3.691,1.347a4.267,4.267,0,0,0,3.769-.347c.654-.493,1.149-1.306,1.961-1.428a2.6,2.6,0,0,1,1.494.428l6.106,3.21a4.652,4.652,0,0,1,2.125,1.74,1.606,1.606,0,0,1-.766,2.294,8.372,8.372,0,0,1-.952.055.746.746,0,0,0-.7.54,1.085,1.085,0,0,0,.15.559,2.339,2.339,0,0,1,.036,1.989,1.423,1.423,0,0,1-1.728.714c.107.921-.895,1.566-1.787,1.811a16.161,16.161,0,0,1-6.939-.152,9.512,9.512,0,0,1-2.646-.714c-.4-.193-.761-.44-1.161-.619a8.287,8.287,0,0,0-3.543-.4c-5.547.1-11.046-.93-16.5-1.954a7.981,7.981,0,0,1-2.915-.952,5.4,5.4,0,0,1-2.011-5.283,15.861,15.861,0,0,1,2.256-5.487l1.273-2.244a2.889,2.889,0,0,1,.685-.9C126.7,410.877,130.412,411.969,132.016,413.259Z" transform="translate(-117.692 -325.2)" opacity="0.04"/>
      <path id="Path_143" data-name="Path 143" d="M319.939,433.126a38.69,38.69,0,0,1-3.957,1.092,23.439,23.439,0,0,0-3.581,1.918c-3.094,1.728-6.663,2.38-10.168,3a29.661,29.661,0,0,1-6.425.671c-2.9-.124-5.683-1.09-8.491-1.818s-5.8-1.218-8.586-.4a9.664,9.664,0,0,0-6.306,6.051,13.938,13.938,0,0,0-.552,5.359c.585.431,1.4-.167,1.723-.821s.493-1.456,1.111-1.837c1.073.364,1.335,1.794,2.22,2.5a4.009,4.009,0,0,0,1.992.659l3.617.514a2.958,2.958,0,0,0,2.513-.407c.307-.3.476-.714.757-1.033a2.806,2.806,0,0,1,2.394-.662c2.675.267,5.183,2,7.839,1.59a14.866,14.866,0,0,0,2.634-.838c5.161-1.823,10.9-.714,16.267-1.759a36.308,36.308,0,0,0,5.971-1.844,12.073,12.073,0,0,0,3.034-1.5,6.387,6.387,0,0,0,2.465-5.666,6.478,6.478,0,0,0-2.287-4.2,8.1,8.1,0,0,0-1.471-1.264C321.693,432.013,320.753,432.743,319.939,433.126Z" transform="translate(-232.974 -340.955)" fill="#a1616a"/>
      <g id="Group_317" data-name="Group 317" transform="translate(51.284 36.156)" opacity="0.1">
        <path id="Path_144" data-name="Path 144" d="M352.784,225.975c-.4-.352-.495-.888-.838-1.278-.714-.826-2.156-.714-3.332-.547-2.049.288-4.521.355-5.792-1.071-.55-.614-.792-1.428-1.463-1.939-1.566-1.19-4.26.029-5.985-.978-1.506-.878-1.409-2.915-2.665-4.045s-3.434-.983-5.14-.419a1.487,1.487,0,0,1-.923.1c-.54-.19-.5-.861-.369-1.356a29.011,29.011,0,0,1,2.575-7.006,14.723,14.723,0,0,0,1.3-2.437c.516-1.509.252-3.215.93-4.643a6.408,6.408,0,0,0-1.878,1.666c-1.014,1.511-.621,3.434-1.19,5.111a14.724,14.724,0,0,1-1.3,2.437,29.012,29.012,0,0,0-2.575,7.006c-.133.495-.171,1.166.369,1.356a1.487,1.487,0,0,0,.923-.1c1.706-.564,3.874-.726,5.14.419s1.159,3.174,2.665,4.045c1.725,1.007,4.419-.209,5.985.978.671.509.914,1.325,1.463,1.939,1.28,1.428,3.743,1.359,5.792,1.071,1.176-.167,2.618-.278,3.332.547.343.39.44.926.838,1.278a2.185,2.185,0,0,0,2.718-.34,7.217,7.217,0,0,0,1.137-1.556A1.77,1.77,0,0,1,352.784,225.975Z" transform="translate(-324.055 -200.36)"/>
        <path id="Path_145" data-name="Path 145" d="M461.636,290.081a6.773,6.773,0,0,0-.426.616,12.9,12.9,0,0,0,2.565-2.092,5.05,5.05,0,0,0,.476-.685A12.5,12.5,0,0,0,461.636,290.081Z" transform="translate(-428.572 -267.084)"/>
      </g>
      <path id="Path_146" data-name="Path 146" d="M556.48,446.53l.714,68.3,3.331-.476-.714-67.82Z" transform="translate(-424.056 -340.255)" fill="#3f3d56"/>
      <path id="Path_147" data-name="Path 147" d="M640.48,498.53l.714,68.3,3.331-.476-.714-67.82Z" transform="translate(-488.067 -379.881)" fill="#3f3d56"/>
      <path id="Path_148" data-name="Path 148" d="M998.7,581.5h0l-.014-1.311v-.781l-.126-12.012-.2-18.78L998.331,547H995l.017,1.561.1,10.059.045,4.355h0l.038,3.527.062,6.1.038,3.6h0v.381l.05,4.726.043,4.167.271-.3q.654-.731,1.28-1.485Z" transform="translate(-784.055 -428.355)" fill="#3f3d56"/>
      <path id="Path_149" data-name="Path 149" d="M618.884,545.03l-1.9,2.846,1.9,12.967,16.182,4.429h26.176l15.706.949,7.482-5.121-1.295-8.8-5.711-7.275Z" transform="translate(-470.159 -415.315)" fill="#f2ca35"/>
      <path id="Path_150" data-name="Path 150" d="M721.848,605.48l-.952,7.905s-5,15.5,35.219,14.549,33.315-4.112,33.315-4.112l-.238-9.171s1.4,4.341-19.037,3.753-39.5-2.487-39.5-2.487S723.514,617.181,721.848,605.48Z" transform="translate(-575.027 -472.919)" fill="#3f3d56"/>
      <path id="Path_151" data-name="Path 151" d="M835.491,304.337a11.5,11.5,0,0,0-5.195,5.309,34.274,34.274,0,0,0-2.463,7.139,63.556,63.556,0,0,0-1.716,7.8,23.61,23.61,0,0,0,2,13.84,15.6,15.6,0,0,0,10.8,8.426,19.884,19.884,0,0,0,5.473.064,44.5,44.5,0,0,0,9.664-2.13c3.272-1.107,6.677-2.81,8.134-5.949a13.305,13.305,0,0,0,.876-5.9,62.758,62.758,0,0,0-2.453-16.132,13.733,13.733,0,0,0-1.885-4.34,13.3,13.3,0,0,0-3.51-3.094C849.652,305.619,842.337,301.224,835.491,304.337Z" transform="translate(-655.164 -242.632)" fill="#fbbebe"/>
      <path id="Path_152" data-name="Path 152" d="M835.491,304.337a11.5,11.5,0,0,0-5.195,5.309,34.274,34.274,0,0,0-2.463,7.139,63.556,63.556,0,0,0-1.716,7.8,23.61,23.61,0,0,0,2,13.84,15.6,15.6,0,0,0,10.8,8.426,19.884,19.884,0,0,0,5.473.064,44.5,44.5,0,0,0,9.664-2.13c3.272-1.107,6.677-2.81,8.134-5.949a13.305,13.305,0,0,0,.876-5.9,62.758,62.758,0,0,0-2.453-16.132,13.733,13.733,0,0,0-1.885-4.34,13.3,13.3,0,0,0-3.51-3.094C849.652,305.619,842.337,301.224,835.491,304.337Z" transform="translate(-655.164 -242.632)" opacity="0.05"/>
      <path id="Path_153" data-name="Path 153" d="M788.41,367.961a10.8,10.8,0,0,0,2.38,2.38c2.265,1.566,5.173,1.778,7.924,1.863,2.208.067,4.74-.059,6.125-1.782A7.134,7.134,0,0,0,806,367.692a121.08,121.08,0,0,0,3.308-18.031l6.3.021c2.727,11.677,2.5,23.816,2.265,35.807l-.345,17.486-4.06-.431c-9.64-1.021-19.294-2.042-28.987-2.218a165.809,165.809,0,0,0-17.019.562L776.3,374.6a43.509,43.509,0,0,0,2.575-10.47c.388-5.209-1.073-10.708.952-15.527a1.888,1.888,0,0,1,.735-.992,2.088,2.088,0,0,1,1.259-.1c.8.107,3.243,0,3.824.512.857.742.29.854-.012,2.051a25.035,25.035,0,0,0-1.045,6.356A18.773,18.773,0,0,0,788.41,367.961Z" transform="translate(-610.661 -276.304)" fill="#f2ca35"/>
      <path id="Path_154" data-name="Path 154" d="M960.455,398.432h0q1.592-2.113,3-4.376c-.476-1.018-1-2.013-1.416-3.053a30.69,30.69,0,0,1-1.366-4.962q-.186-.857-.369-1.713a112.571,112.571,0,0,1-2.844-18.814q-.036-.785-.045-1.571v-1.956c.029-1.428.119-2.867.283-4.3.031-.281.067-.562.1-.842a1.206,1.206,0,0,1,.024-.183l16.182-.59h0l1.361-.05a4.987,4.987,0,0,0,2.7-.616c1.3-.89,1.449-2.715,1.428-4.283a63.579,63.579,0,0,0-1.342-11.791c-.614-2.917-1.49-5.9-3.455-8.141-1.613-1.842-3.95-3.182-4.79-5.473a24.7,24.7,0,0,0-.795-2.6,8.1,8.1,0,0,0-1.7-2.039,28.4,28.4,0,0,1-5.449-7.548,23.851,23.851,0,0,0-3.267-5.426c-.062-.069-.124-.133-.188-.2a3.032,3.032,0,0,0-3.748-.8,4.8,4.8,0,0,0-.742.462h0a9.045,9.045,0,0,0-1.411,1.342,32.125,32.125,0,0,0-3.838,5.473,30.413,30.413,0,0,0-1.961,4.283,29.533,29.533,0,0,0-1.059,3.569c-.2.9-.366,1.8-.495,2.713a66.006,66.006,0,0,0-.409,10.361c.071,3.179.212,6.366.5,9.533q.107,1.149.238,2.3.262,2.268.647,4.521c.1.573.207,1.147.324,1.718.029.152.06.3.09.455l.014.064a38.666,38.666,0,0,1,.731,4.024q.029.255.043.507a19.6,19.6,0,0,1-.019,2.334c-.055.919-.14,1.835-.183,2.753a4.476,4.476,0,0,1-.017.476c-.012.464,0,.928,0,1.392a22.068,22.068,0,0,0,.4,3.305,21.381,21.381,0,0,0,2.058,5.816c.09.171.183.34.276.507,1.206,2.156,2.729,4.133,3.845,6.339a27.363,27.363,0,0,1,2.142,6.237q.238,1.068.452,2.142c.221,1.142.419,2.294.621,3.446.019.114.04.238.062.343.269,1.528.552,3.048.916,4.54.212.869.45,1.725.728,2.568Z" transform="translate(-745.807 -245.283)" fill="#464353"/>
      <path id="Path_155" data-name="Path 155" d="M855.917,576.005c0,.214-.014.428-.024.645a30.505,30.505,0,0,1-.288,3.12,20.3,20.3,0,0,1-1.03,4.138,13.953,13.953,0,0,1-1.228,2.525,11.643,11.643,0,0,1-1.528,1.968c-1.428,1.485-3.484,1.958-5.473,2.584a13.472,13.472,0,0,0-2.639,1.078c-.15.083-.3.174-.44.269l-2.489,1.649a7.446,7.446,0,0,0-2.1,1.8,3.881,3.881,0,0,0-.238.4,9.12,9.12,0,0,0-.733,2.2c-1.294,5.392-2.591,10.789-3.479,16.263-.06.362-.117.726-.178,1.09l-.021.114a.6.6,0,0,0-.038-.079,143.212,143.212,0,0,1-19.775,10.106L812.736,613.5a14.971,14.971,0,0,1-.152-3.041c.14-1.6.792-3.12.969-4.716a8.036,8.036,0,0,0-.849-4.538,4.96,4.96,0,0,1-.7-1.682,1.047,1.047,0,0,1,.895-1.223,2.2,2.2,0,0,0,.374-1.963,5.706,5.706,0,0,0-.333-1.087c-.4-.995-.916-2.077-.569-3.094a1.157,1.157,0,0,0,.119-.595.1.1,0,0,0,0-.038c-.081-.267-.4-.383-.562-.609-.309-.421,0-.995.19-1.48a5.648,5.648,0,0,0,.319-1.621c.026-.307.045-.616.079-.921a9.279,9.279,0,0,1,.221-1.223,9.654,9.654,0,0,1,3.91-5.6c.926-.623,1.956-1.078,2.9-1.666a26.557,26.557,0,0,0,2.765-2.142q3.144-2.618,6.537-4.935a82.556,82.556,0,0,1,7.548-4.583q.833-.45,1.666-.876.907-.476,1.825-.9c1.961-.935,4.186-.585,6.354.038.909.259,1.806.569,2.672.85a12.368,12.368,0,0,1,2.427,1.09,8.951,8.951,0,0,1,4.167,4.9.249.249,0,0,1,0,.04A12.462,12.462,0,0,1,855.917,576.005Z" transform="translate(-644.449 -441.612)" fill="#f86d70"/>
      <path id="Path_156" data-name="Path 156" d="M855.917,576.005c0,.214-.014.428-.024.645a30.505,30.505,0,0,1-.288,3.12,20.3,20.3,0,0,1-1.03,4.138,13.953,13.953,0,0,1-1.228,2.525,11.643,11.643,0,0,1-1.528,1.968c-1.428,1.485-3.484,1.958-5.473,2.584a13.472,13.472,0,0,0-2.639,1.078c-.15.083-.3.174-.44.269l-2.489,1.649a7.446,7.446,0,0,0-2.1,1.8,3.881,3.881,0,0,0-.238.4,9.12,9.12,0,0,0-.733,2.2c-1.294,5.392-2.591,10.789-3.479,16.263-.06.362-.117.726-.178,1.09l-.021.114a.6.6,0,0,0-.038-.079,143.212,143.212,0,0,1-19.775,10.106L812.736,613.5a14.971,14.971,0,0,1-.152-3.041c.14-1.6.792-3.12.969-4.716a8.036,8.036,0,0,0-.849-4.538,4.96,4.96,0,0,1-.7-1.682,1.047,1.047,0,0,1,.895-1.223,2.2,2.2,0,0,0,.374-1.963,5.706,5.706,0,0,0-.333-1.087c-.4-.995-.916-2.077-.569-3.094a1.157,1.157,0,0,0,.119-.595.1.1,0,0,0,0-.038c-.081-.267-.4-.383-.562-.609-.309-.421,0-.995.19-1.48a5.648,5.648,0,0,0,.319-1.621c.026-.307.045-.616.079-.921a9.279,9.279,0,0,1,.221-1.223,9.654,9.654,0,0,1,3.91-5.6c.926-.623,1.956-1.078,2.9-1.666a26.557,26.557,0,0,0,2.765-2.142q3.144-2.618,6.537-4.935a82.556,82.556,0,0,1,7.548-4.583q.833-.45,1.666-.876.907-.476,1.825-.9c1.961-.935,4.186-.585,6.354.038.909.259,1.806.569,2.672.85a12.368,12.368,0,0,1,2.427,1.09,8.951,8.951,0,0,1,4.167,4.9.249.249,0,0,1,0,.04A12.462,12.462,0,0,1,855.917,576.005Z" transform="translate(-644.449 -441.612)" opacity="0.1"/>
      <path id="Path_157" data-name="Path 157" d="M898.912,446.679a.447.447,0,1,0-.8.39l-.238.117,7.1,14.544,1.283-.626-7.1-14.554Z" transform="translate(-710.038 -351.703)" fill="#3f3d56"/>
      <circle id="Ellipse_53" data-name="Ellipse 53" cx="15.23" cy="15.23" r="15.23" transform="translate(182.516 49.283)" fill="#fbbebe"/>
      <path id="Path_158" data-name="Path 158" d="M912,190.8a20.23,20.23,0,0,0-.538-3.591,21.088,21.088,0,0,0-5.345-10.4,20.834,20.834,0,0,0-.621-2,.385.385,0,0,0-.017-.048,22.346,22.346,0,0,0-3.593-6.37c-.892-1.109-2.049-2.2-3.472-2.246a2.815,2.815,0,0,1-1.19-.129,2.142,2.142,0,0,1-.664-.681,6.232,6.232,0,0,0-6.035-2.258l-.148.031c-.083.017-.167.036-.238.057s-.2.057-.3.088q.164.271.321.55.424.754.785,1.542.3.657.554,1.335c-2.437.278-4.421,2.008-6.235,3.655l-4.269,3.874a.174.174,0,0,0-.021.021l-.124.119c-.031.031-.062.062-.09.1a.2.2,0,0,0-.031.033c-.036.038-.069.079-.1.119a1.787,1.787,0,0,0-.159.238.862.862,0,0,0-.062.112.24.24,0,0,0-.017.036.868.868,0,0,0-.04.1.033.033,0,0,0,0,.014.557.557,0,0,0-.017.059.714.714,0,0,0,.04.5l2.815.031h.331c.014.376.026.754.04,1.13a16.037,16.037,0,0,0-1.285,1.071,13.953,13.953,0,0,0-1.254,1.323,18.262,18.262,0,0,0-4,11.018v1.456c0,.238.021.476.04.714a1.783,1.783,0,0,0,.238.883.813.813,0,0,0,.067.086,1.642,1.642,0,0,0,.5.371l.2.1h0c.1.05.2.1.3.152.9.507,1.428,1.485,2.244,2.113.048.036.1.071.143.1l.107.071.067.043.09.052a1.943,1.943,0,0,0,.183.1h0l.114.057h.019c.1.043.19.083.288.119l.136.048.04.014c.038.012.078.026.119.036q.121.036.238.064l.238.052c.093.017.188.033.283.045l.14.019.143.014q.34.031.685.036h0a17.136,17.136,0,0,0,2.158-.15l6.073-.714a13.086,13.086,0,0,1,4.143-.038,27.3,27.3,0,0,1,3.331,1.173c.252.088.5.169.759.238.093.026.188.055.283.079l.131.033.3.074c.109.026.219.052.328.074.155.033.307.062.462.09.1.021.212.038.319.057h.021l.3.048h.074l.226.031c.109.017.219.031.331.043q.364.045.728.079c.393.038.788.067,1.19.09l.4.024.4.019,1.19.052h.219a6.139,6.139,0,0,0,1.48-.076c.086-.017.169-.036.252-.059s.152-.048.238-.076a4.074,4.074,0,0,0,2-1.973c.1-.178.183-.357.264-.54s.155-.369.221-.554c.083-.238.155-.464.217-.7.019-.064.036-.129.05-.2s.048-.2.067-.3c.059-.274.1-.55.138-.828a2.54,2.54,0,0,1,.031-.267c.021-.238.038-.459.048-.692v-.533C912.013,191.3,912,191.041,912,190.8Zm-6.1-14.207c-.193-.181-.39-.355-.59-.519a2.459,2.459,0,0,1,.588.519Z" transform="translate(-694.15 -135.712)" fill="#464353"/>
      <path id="Path_159" data-name="Path 159" d="M729.56,306.36c-1.792-.221-3.569-1.007-5.338-.621a7.4,7.4,0,0,0-2.944,1.632,35.794,35.794,0,0,0-8.274,9.459,5,5,0,0,0-.764,1.789,4.743,4.743,0,0,0,.328,2.208c1.628,4.809,5.109,8.826,6.694,13.65,1.666,5.073,1.088,10.618-.14,15.815a66.1,66.1,0,0,1-7.339,18.252,10.406,10.406,0,0,1-1.69,2.313c-.866.833-2.03,1.428-2.544,2.518a11.281,11.281,0,0,0-.476,1.528c-.476,1.428-1.628,2.651-1.74,4.157a9.486,9.486,0,0,0,.792,3.331,9.18,9.18,0,0,1-.169,5.735c-1.206,3.308-4.362,6.316-3.446,9.716,2.044-.588,4.31-1.352,5.273-3.248a5.789,5.789,0,0,1,1.083-1.961c1.145-.973,3.094-.093,4.31-.988a2.726,2.726,0,0,0,.543-3.146c-.409-1.071-1.114-2.013-1.428-3.115-.547-1.987.328-4.088.167-6.142-.076-.952-.369-1.863-.39-2.81a6.6,6.6,0,0,1,2.332-4.819,19.381,19.381,0,0,1,4.674-2.894l6.225-3.094c2.258-1.118,4.733-2.482,5.473-4.89a9.9,9.9,0,0,0,.3-2.806c.212-14.4,3.819-28.508,7.405-42.455a52.6,52.6,0,0,1,1.951-6.406c.828-2.075,2.449-3.741,3.274-5.668C738.912,302.84,734.536,306.983,729.56,306.36Z" transform="translate(-561.044 -242.685)" fill="#464353"/>
      <path id="Path_160" data-name="Path 160" d="M799.327,580.043c.55,3.332.885,6.734,1.147,10.121a115.78,115.78,0,0,1-13.581,9.5c-.267.164-.535.326-.8.476l-.021.114a.6.6,0,0,0-.038-.079,3.581,3.581,0,0,0-1.79-1.766q-2.634-5.533-5.264-11.065a29.063,29.063,0,0,1-2.38-6.151.957.957,0,0,0-.029-.138c-.362-1.666-.445-3.4-.685-5.083a14.683,14.683,0,0,0-.65-2.841c-.286-.821-.678-1.618-1.026-2.42a8.06,8.06,0,0,1-.8-3.06,2,2,0,0,0-.145-1,2.592,2.592,0,0,0-.65-.628,2.477,2.477,0,0,1-.8-2.263c-1.428.074-2.232,1.609-2.806,2.91a15.866,15.866,0,0,1-2.037,3.57,6.769,6.769,0,0,1-2.256,1.878c-.079.038-.157.076-.238.109-1.987.876-4.307.566-6.461.171a12.111,12.111,0,0,1-5.342-1.944l-.162-.129a6.988,6.988,0,0,1-1.19-1.271,13.829,13.829,0,0,1-2.142-6.187c-.029-.2-.057-.409-.083-.614a22.885,22.885,0,0,1-.178-4.636c.029-.381.069-.761.119-1.14.033-.238.069-.495.109-.742a.066.066,0,0,1,0-.021c.062-.393.128-.788.2-1.19a10.937,10.937,0,0,1,1.19-3.9,7.377,7.377,0,0,1,1.751-1.875c.257-.2.521-.4.788-.581.433-.3.878-.585,1.33-.854a22.99,22.99,0,0,1,3.57-1.737c.3-.114.595-.221.895-.324a7.022,7.022,0,0,1,3.636-.288,19.137,19.137,0,0,0,3.255.19,82.068,82.068,0,0,0,8.381-.933c3.869-.476,8.027-.533,11.4,1.428.162.093.319.19.476.293a14.1,14.1,0,0,1,4.091,4.324c.238.359.445.728.65,1.1a28.07,28.07,0,0,1,1.278,2.641,3.284,3.284,0,0,1,.355,1.428,1.851,1.851,0,0,1-.038.281c-.064.338-.193.666-.238,1.009-.15,1.3.952,2.38,1.364,3.615a17.714,17.714,0,0,1,.388,2.513,13.071,13.071,0,0,0,1.323,3.332,41.656,41.656,0,0,1,2.118,5.323c.414,1.268.769,2.556,1.08,3.855q.152.626.288,1.254C798.928,577.78,799.139,578.908,799.327,580.043Z" transform="translate(-596.494 -426.034)" fill="#f86d70"/>
      <path id="Path_161" data-name="Path 161" d="M650.356,457.118v1.666l-.307,0-.343,0-3.826-.048-9.428-.124-2.646-.033-.685-.01-3.972-.05-5.6-.074-11.875-.155-20.605-.267-7.436-.1-2.984-.038-2.746-.036-1.711-.024-1.621-.021-12.015-.155-3.332-.043-.726-.01-.471-1.216-3.424-8.831-.626-1.613.476-1.9,2.142,1.428,1.318.164,21.7,2.7,4.074.507,8.638,1.076,8.462,1.052,3.317.412,19.63,2.442,5.485.683,4.54.564,16.144,2.008Z" transform="translate(-422.151 -338.35)" fill="#3f3d56"/>
      <path id="Path_162" data-name="Path 162" d="M555.98,444.03l4.283,11.184,91.617,1.9V444.982Z" transform="translate(-423.675 -338.35)" fill="#504f60"/>
      <path id="Path_163" data-name="Path 163" d="M575.98,496.03l.714,68.3,3.331-.476-.714-67.82Z" transform="translate(-438.916 -377.975)" fill="#3f3d56"/>
      <path id="Path_164" data-name="Path 164" d="M1052.744,551.084h-.343a75.319,75.319,0,0,1-2.744,12.562l-1.083-12.612-.045-.538,4-.462.133-.014Z" transform="translate(-824.846 -430.657)" fill="#3f3d56"/>
      <path id="Path_165" data-name="Path 165" d="M756.669,457.551l-34.862.714L710.98,454.7l29.032-1.666Z" transform="translate(-541.79 -345.208)" fill="#fff"/>
      <path id="Path_166" data-name="Path 166" d="M821.519,457.553a2.336,2.336,0,0,0-.952.678,2.513,2.513,0,0,0-.355,1.08l-.585,3.491a1.544,1.544,0,0,0,.045.969c.152.293.595.445.816.2a3.135,3.135,0,0,0,.428,1.968,1.372,1.372,0,0,0,1.792.462,1.161,1.161,0,0,0,1.749.271c-.338.114-.362.631-.121.892a1.554,1.554,0,0,0,.971.388,23.747,23.747,0,0,0,12.35-1.554c.369-.152-.6-4.7-.7-5.166-.238-1.1-.357-2.437-1.283-3.174-2.213-1.766-6.144-2.113-8.84-1.9A15.23,15.23,0,0,0,821.519,457.553Z" transform="translate(-650.371 -359.088)" fill="#fbbebe"/>
      <path id="Path_167" data-name="Path 167" d="M894.314,453.464c-8.607.164-17.393.3-25.607-2.273a17.372,17.372,0,0,1-.157,9.25l40.245,3.332c1.706.14,8.781.94,10.444.538s-13.957-5.547-13.326-7.139c1.735-4.386,7.546-6.956,3.36-7.12C903.99,449.842,899.638,453.364,894.314,453.464Z" transform="translate(-687.695 -354.47)" opacity="0.1"/>
      <path id="Path_168" data-name="Path 168" d="M895.315,455.464c-8.607.164-17.393.3-25.607-2.273a17.372,17.372,0,0,1-.157,9.25l40.245,3.332c1.706.14,8.781.952,10.444.538s1.273-2.453,1.9-4.045c1.735-4.386-7.684-10.049-11.87-10.213C904.99,451.842,900.638,455.364,895.315,455.464Z" transform="translate(-688.458 -355.994)" fill="#464353"/>
      <path id="Path_169" data-name="Path 169" d="M868.37,464.553a2.33,2.33,0,0,1,.952.678,2.548,2.548,0,0,1,.357,1.08l.585,3.491a1.561,1.561,0,0,1-.045.969c-.152.293-.6.445-.816.2a3.15,3.15,0,0,1-.428,1.968,1.375,1.375,0,0,1-1.794.462,1.161,1.161,0,0,1-1.749.271c.338.114.364.631.124.892a1.561,1.561,0,0,1-.973.388,23.736,23.736,0,0,1-12.348-1.554c-.369-.152.6-4.7.7-5.166.238-1.1.357-2.437,1.283-3.174,2.211-1.766,6.144-2.113,8.84-1.9a15.23,15.23,0,0,1,5.314,1.4Z" transform="translate(-675.198 -364.422)" fill="#fbbebe"/>
      <path id="Path_170" data-name="Path 170" d="M672.1,376.567a15.234,15.234,0,0,0-2.092,3.246c-.973,2.265-.831,4.831-.669,7.291a4.254,4.254,0,0,0,.476,2.035,3.437,3.437,0,0,0,1.242,1.059,17.584,17.584,0,0,0,6.83,1.782q5.411.6,10.861.731c9,.219,18.138-.516,26.9,1.523a6.739,6.739,0,0,1-.476-5.711,19.445,19.445,0,0,1,2.92-5.128c-4.012-1.271-8.315.714-12.517.516-4.314-.2-8.307-2.7-12.626-2.694a11.488,11.488,0,0,1-2.775-.107,2.311,2.311,0,0,1-1.859-1.83c1.152.259,2.244-.726,2.72-1.806s.562-2.3,1.023-3.389c1.149-2.706,4.255-3.96,6.187-6.187a1.516,1.516,0,0,0,.107-2.3c-1.606-2.142-4.026-3.332-6.037-5-.7-.581-2.111-2.77-2.9-2.972-1.456-.374-2.691,1.73-3.638,2.756Q678.611,368.178,672.1,376.567Z" transform="translate(-535.8 -284.015)" fill="#464353"/>
      <path id="Path_171" data-name="Path 171" d="M882.39,434.81a7.876,7.876,0,0,1,1.592,1.578,2.718,2.718,0,0,1,.5,2.127,3.179,3.179,0,0,1,1.982-3.291Z" transform="translate(-698.242 -342.863)" opacity="0.07"/>
      <g id="Group_318" data-name="Group 318" transform="translate(182.836 27.366)" opacity="0.1">
        <path id="Path_172" data-name="Path 172" d="M932.531,165.6a20.679,20.679,0,0,0-.966-2.177,5.838,5.838,0,0,0-.695.178,20.126,20.126,0,0,1,1.1,2.1A3.991,3.991,0,0,1,932.531,165.6Z" transform="translate(-918.021 -163.42)"/>
        <path id="Path_173" data-name="Path 173" d="M995.87,212c.064.052.126.112.188.167a.35.35,0,0,0-.017-.045Q995.96,212.062,995.87,212Z" transform="translate(-967.554 -200.44)"/>
        <path id="Path_174" data-name="Path 174" d="M893.672,211.752c.124-.1.238-.2.371-.3l-.038-1.13-2.542-.026c-.412.378-.849.921-.607,1.428Z" transform="translate(-887.477 -199.144)"/>
        <path id="Path_175" data-name="Path 175" d="M910.857,282.018a4.064,4.064,0,0,1-2,1.973,5.414,5.414,0,0,1-2.18.2,25.482,25.482,0,0,1-7.429-1.045,26.225,26.225,0,0,0-3.331-1.176,13.017,13.017,0,0,0-4.143.04l-6.073.714c-1.792.209-3.788.366-5.219-.733-.819-.628-1.347-1.606-2.244-2.111a2.852,2.852,0,0,1-1.073-.714,1.782,1.782,0,0,1-.238-.883c-.019-.25-.031-.5-.04-.75a20.152,20.152,0,0,0,.04,2.177,1.781,1.781,0,0,0,.238.883,2.851,2.851,0,0,0,1.073.714c.9.5,1.428,1.483,2.244,2.111,1.428,1.1,3.427.952,5.219.733l6.073-.714a13.018,13.018,0,0,1,4.143-.04,26.922,26.922,0,0,1,3.331,1.176,25.21,25.21,0,0,0,7.429,1.045,5.456,5.456,0,0,0,2.18-.2,4.064,4.064,0,0,0,2-1.973,10.1,10.1,0,0,0,1.028-5.342,9.294,9.294,0,0,1-1.028,3.915Z" transform="translate(-876.877 -250.383)"/>
      </g>
      <path id="Path_176" data-name="Path 176" d="M937.56,179l3.331,3.094S938.036,180.9,937.56,179Z" transform="translate(-740.284 -147.926)" opacity="0.1"/>
    </g>
  </g>
</svg>
