<svg id="long-arrow-pointing-to-the-right" xmlns="http://www.w3.org/2000/svg" width="26.438" height="11.749" viewBox="0 0 26.438 11.749">
  <path id="Path_372" data-name="Path 372" d="M26.285,142.53l-5.875-5.355a.491.491,0,0,0-.536-.076.444.444,0,0,0-.291.444v3.427H.49a.471.471,0,0,0-.49.489V144.4a.471.471,0,0,0,.49.489H19.584v3.427a.461.461,0,0,0,.291.444.477.477,0,0,0,.536-.092l5.875-5.417a.5.5,0,0,0,.153-.367A.483.483,0,0,0,26.285,142.53Z" transform="translate(0 -137.052)" fill="#f2ca35"/>
</svg>
